<svg width="1915" height="960" viewBox="0 0 1915 960" fill="none" xmlns="http://www.w3.org/2000/svg">
<g clip-path="url(#clip0_2285_782)">
<path d="M1126.45 1267.01C1126.03 1267.01 1125.62 1267.01 1125.21 1267.01C1020.34 1266.94 875.74 1251.28 728.49 1224.05C551.7 1191.36 379.73 1143.96 231.17 1086.96C50.2998 1017.57 -94.0402 935.38 -197.85 842.65C-319.98 733.56 -384.39 610.75 -389.28 477.62C-390.22 451.95 -376.75 406.52 -349.24 342.59C-322.69 280.89 -284.51 205.22 -235.77 117.69C-134.04 -65.04 -0.920166 -273.48 139.06 -469.22C298.7 -692.48 454.77 -881.55 590.39 -1015.98C751.84 -1176.02 880.91 -1256.43 974.05 -1254.93C1318.48 -1249.45 1548.47 -1160.17 1657.63 -989.57C1684.97 -946.85 1704.97 -898.39 1717.07 -845.53C1729.72 -790.28 1734.1 -728.7 1730.09 -662.5C1721.54 -521.68 1674.7 -354.15 1590.85 -164.54C1544.67 -60.12 1525.44 60.23 1532.05 203.39C1537.86 329.35 1562.16 454.63 1585.66 575.79C1599.39 646.6 1612.37 713.48 1621.02 777.3C1632.34 860.74 1634.25 925.21 1627.03 980.18C1618.45 1045.56 1596.69 1097.46 1560.51 1138.85C1523.5 1181.19 1472.09 1212.1 1403.32 1233.36C1330.06 1256 1239.48 1267.01 1126.45 1267.01ZM-386.28 477.51C-381.42 609.79 -317.34 731.89 -195.85 840.42C-92.3102 932.9 51.7198 1014.91 232.24 1084.17C380.64 1141.1 552.42 1188.45 729.03 1221.11C876.11 1248.31 1020.51 1263.95 1125.21 1264.02C1125.62 1264.02 1126.04 1264.02 1126.45 1264.02C1239.18 1264.02 1329.45 1253.05 1402.43 1230.49C1470.65 1209.4 1521.62 1178.77 1558.25 1136.87C1594.02 1095.95 1615.55 1044.56 1624.05 979.79C1631.23 925.08 1629.32 860.87 1618.04 777.7C1609.39 713.97 1596.43 647.13 1582.7 576.36C1559.18 455.1 1534.86 329.7 1529.04 203.53C1522.41 59.89 1541.73 -60.9 1588.09 -165.75C1671.8 -355.03 1718.56 -522.22 1727.08 -662.68C1731.08 -728.6 1726.73 -789.89 1714.14 -844.86C1702.11 -897.38 1682.25 -945.52 1655.1 -987.95C1546.51 -1157.64 1317.36 -1246.46 973.99 -1251.92C926.39 -1252.68 868.22 -1231.22 801.17 -1188.14C739.25 -1148.36 669.04 -1089.71 592.49 -1013.83C457 -879.53 301.05 -690.6 141.5 -467.48C1.58981 -271.82 -131.47 -63.48 -233.16 119.15C-332.3 297.2 -388.11 427.82 -386.28 477.51Z" fill="#56C5D0"/>
<path d="M1131.8 1233.95C1115.35 1233.95 1098.39 1233.67 1080.89 1233.12C976.94 1229.86 832.61 1211.04 684.9 1181.49C510.6 1146.62 338.82 1098.75 188.15 1043.03C-87.6802 941.86 -415 756.93 -407.97 450.5C-406.93 405.32 -358.7 295.67 -275.64 149.68C-174.25 -28.52 -26.4202 -250.66 129.95 -459.76C290.47 -674.6 446.35 -856.41 580.73 -985.53C741.36 -1139.87 869.31 -1218.22 961.05 -1218.41L971.34 -1218.43C1131.11 -1218.79 1282.04 -1219.13 1403.96 -1165.09C1569.49 -1091.72 1669.85 -986.11 1710.77 -842.21C1734.02 -760.47 1738.02 -664.4 1722.68 -556.69C1706.28 -441.54 1667.18 -308.83 1606.46 -162.26C1505.68 81.05 1540.18 347.18 1570.62 581.99C1579.68 651.88 1588.24 717.9 1592.97 780.51C1599.05 860.91 1597.34 922.48 1587.59 974.29C1575.96 1036.06 1552.58 1084.62 1516.09 1122.74C1477.97 1162.58 1426.03 1190.87 1357.28 1209.24C1295.33 1225.81 1221.2 1233.95 1131.8 1233.95ZM1009.96 -1215.6C997.15 -1215.6 984.28 -1215.57 971.35 -1215.54L961.06 -1215.52C870.1 -1215.33 742.81 -1137.25 582.73 -983.44C448.46 -854.43 292.69 -672.74 132.26 -458.02C-24.0402 -249.02 -171.8 -26.99 -273.13 151.11C-355.96 296.7 -404.06 405.84 -405.08 450.57C-412.08 755.29 -85.8002 939.48 189.15 1040.34C339.69 1096 511.31 1143.84 685.47 1178.67C833.03 1208.19 977.19 1226.98 1080.98 1230.24C1193.33 1233.77 1283.46 1225.99 1356.54 1206.46C1424.76 1188.23 1476.26 1160.19 1514.01 1120.75C1550.09 1083.04 1573.24 1034.96 1584.76 973.76C1594.46 922.21 1596.16 860.87 1590.1 780.74C1585.37 718.2 1576.82 652.23 1567.76 582.37C1537.27 347.21 1502.72 80.67 1603.8 -163.35C1664.42 -309.7 1703.46 -442.17 1719.83 -557.09C1735.12 -664.4 1731.14 -760.06 1708 -841.42C1667.33 -984.45 1567.5 -1089.46 1402.8 -1162.46C1291.28 -1211.88 1155.05 -1215.6 1009.96 -1215.6Z" fill="#56C5D0"/>
<path d="M1130.97 1202.36C1101.36 1202.36 1069.95 1201.32 1036.58 1199.25C846.59 1187.44 486.58 1119.78 145.14 999.14C-38.1503 934.37 -180.17 856.21 -276.99 766.82C-387.12 665.14 -437.47 549.59 -426.64 423.39C-422.76 378.13 -372.8 272.8 -289.58 134.42C-189.61 -31.8098 -40.0103 -244.93 120.85 -450.28C282.28 -656.7 437.96 -831.24 571.07 -955.05C730.87 -1103.68 857.7 -1180 948.06 -1181.88C982.48 -1182.6 1017.17 -1184.4 1050.72 -1186.15C1172.82 -1192.51 1288.14 -1198.51 1383.73 -1154.16C1465.27 -1116.32 1529.58 -1075 1580.34 -1027.82C1639.11 -973.2 1679.82 -911.04 1704.81 -837.78C1761.54 -671.42 1734.49 -449.7 1622.09 -159.96C1524.52 91.5702 1541.02 353.6 1555.57 584.78C1559.99 654.99 1564.17 721.3 1564.93 783.74C1565.88 860.86 1560.63 919.47 1548.41 968.18C1533.84 1026.25 1508.9 1071.47 1472.17 1106.41C1432.88 1143.79 1380.34 1169.5 1311.53 1185.02C1260.16 1196.61 1200.56 1202.36 1130.97 1202.36ZM146.06 996.52C487.26 1117.08 846.95 1184.69 1036.76 1196.48C1148.28 1203.41 1237.96 1198.78 1310.92 1182.32C1379.23 1166.91 1431.35 1141.43 1470.27 1104.4C1506.61 1069.83 1531.29 1025.05 1545.73 967.5C1557.89 919.03 1563.12 860.65 1562.17 783.77C1561.41 721.4 1557.23 655.12 1552.81 584.95C1538.23 353.49 1521.71 91.1401 1619.51 -160.96C1731.66 -450.07 1758.7 -671.17 1702.19 -836.89C1677.36 -909.71 1636.88 -971.5 1578.46 -1025.8C1527.92 -1072.77 1463.84 -1113.94 1382.57 -1151.65C1287.61 -1195.72 1172.61 -1189.73 1050.87 -1183.39C1017.3 -1181.64 982.59 -1179.83 948.12 -1179.12C858.46 -1177.25 732.24 -1101.19 572.95 -953.04C439.95 -829.33 284.36 -654.89 123.03 -448.59C-37.7703 -243.32 -187.3 -30.2998 -287.21 135.84C-370.22 273.87 -420.04 378.77 -423.89 423.62C-434.64 548.92 -384.58 663.71 -275.11 764.78C-178.58 853.91 -36.8703 931.88 146.06 996.52Z" fill="#56C5D0"/>
<path d="M1125.51 1172.1C1084.89 1172.1 1040.63 1169.85 992.28 1165.35C890.91 1155.93 750.8 1131.23 597.76 1095.81C431.32 1057.29 259.94 1008.67 102.13 955.2C-82.4001 892.68 -223.21 816.48 -316.38 728.72C-420.54 630.61 -463.92 518.75 -445.31 396.26C-438.51 351.5 -385.51 247.9 -303.52 119.13C-203.74 -37.6001 -56.2601 -236.47 111.75 -440.82C274.1 -638.79 429.59 -806.07 561.4 -924.57C720.36 -1067.48 846.08 -1141.76 935.08 -1145.35C980.23 -1147.17 1025.97 -1152.85 1070.2 -1158.34C1177.53 -1171.67 1278.9 -1184.25 1363.5 -1143.22C1449.24 -1101.63 1513.18 -1061.55 1564.74 -1017.07C1626.91 -963.43 1670.81 -903.3 1698.93 -833.23C1730.55 -754.46 1741.97 -664.42 1733.84 -557.97C1725.02 -442.44 1693.58 -311.5 1637.71 -157.65C1544.16 99.95 1542.6 356.2 1541.23 582.28C1540.79 654.73 1540.37 723.16 1536.89 786.97C1532.87 860.57 1524.19 916.14 1509.55 961.85C1492.16 1016.16 1465.76 1058.04 1428.85 1089.89C1388.32 1124.85 1335.08 1148.02 1266.09 1160.71C1224.77 1168.31 1178.21 1172.1 1125.51 1172.1ZM102.97 952.7C260.7 1006.14 432 1054.74 598.35 1093.24C751.28 1128.63 891.26 1153.31 992.52 1162.72C1103.38 1173.03 1192.7 1171.52 1265.59 1158.11C1334.11 1145.51 1386.94 1122.54 1427.1 1087.89C1463.64 1056.37 1489.78 1014.88 1507.01 961.05C1521.57 915.56 1530.22 860.2 1534.23 786.83C1537.71 723.08 1538.12 654.68 1538.56 582.27C1539.93 355.97 1541.49 99.4799 1635.2 -158.55C1690.99 -312.17 1722.39 -442.89 1731.18 -558.17C1739.27 -664.21 1727.91 -753.86 1696.45 -832.24C1668.49 -901.91 1624.83 -961.71 1562.99 -1015.06C1511.61 -1059.38 1447.85 -1099.35 1362.32 -1140.84C1278.43 -1181.54 1177.43 -1168.99 1070.5 -1155.72C1026.21 -1150.22 980.42 -1144.53 935.16 -1142.71C846.8 -1139.15 721.63 -1065.09 563.14 -922.6C431.43 -804.19 276.04 -637.01 113.77 -439.14C-54.1501 -234.87 -201.56 -36.0901 -301.3 120.56C-383.1 249.04 -435.96 352.26 -442.7 396.67C-461.17 518.25 -418.06 629.33 -314.57 726.81C-221.68 814.3 -81.2001 890.3 102.97 952.7Z" fill="#56C5D0"/>
<path d="M1116.89 1143.12C1066.64 1143.12 1010.51 1139.21 947.98 1131.46C848.03 1119.08 711.83 1091.94 554.1 1052.98C394.12 1013.47 222.96 964.47 59.1201 911.28C-126.67 850.96 -266.21 776.7 -355.61 690.56C-453.8 595.95 -490.26 487.81 -463.97 369.15C-454 324.14 -399.23 224.97 -317.46 103.86C-219.52 -41.2002 -70.3199 -231.28 102.66 -431.36C265.98 -620.87 421.26 -780.88 551.73 -894.08C709.85 -1031.27 834.46 -1103.53 922.11 -1108.84C971.88 -1111.86 1022.81 -1122.29 1072.07 -1132.39C1171.3 -1152.72 1265.03 -1171.92 1343.27 -1132.31C1408.61 -1099.22 1484.18 -1058.38 1549.18 -1006.26C1614.93 -953.55 1662.02 -895.43 1693.15 -828.6C1728.88 -751.87 1744.08 -663.52 1739.59 -558.51C1734.68 -443.57 1706.47 -311.7 1653.34 -155.36C1565.11 104.26 1545.96 351.99 1529.07 570.56C1523.03 648.64 1517.33 722.38 1508.84 790.18C1499.96 861.13 1487.68 914.3 1470.22 957.5C1449.6 1008.52 1420.94 1047.29 1382.59 1076.02C1322.49 1121.06 1236.28 1143.12 1116.89 1143.12ZM1235.69 -1152.82C1184.44 -1152.82 1129.41 -1141.54 1072.56 -1129.9C1023.22 -1119.79 972.19 -1109.34 922.25 -1106.31C835.17 -1101.03 711.06 -1028.98 553.38 -892.16C422.99 -779.04 267.79 -619.12 104.55 -429.7C-68.3599 -229.69 -217.5 -39.7001 -315.38 105.29C-396.98 226.15 -451.61 325 -461.52 369.71C-487.61 487.45 -451.39 594.79 -353.87 688.75C-264.75 774.62 -125.54 848.68 59.8901 908.88C223.68 962.05 394.78 1011.04 554.7 1050.53C712.34 1089.46 848.44 1116.58 948.29 1128.95C1010.75 1136.69 1066.81 1140.59 1116.95 1140.59C1235.74 1140.59 1321.42 1118.69 1381.07 1074C1419.04 1045.55 1447.43 1007.13 1467.87 956.56C1485.25 913.56 1497.47 860.59 1506.32 789.87C1514.8 722.14 1520.5 648.42 1526.53 570.37C1543.44 351.65 1562.6 103.75 1650.93 -156.17C1703.98 -312.28 1732.15 -443.92 1737.05 -558.61C1741.52 -663.21 1726.4 -751.18 1690.84 -827.53C1659.88 -894 1613.02 -951.82 1547.58 -1004.29C1482.76 -1056.26 1407.34 -1097.03 1342.11 -1130.05C1309.23 -1146.69 1273.49 -1152.82 1235.69 -1152.82Z" fill="#56C5D0"/>
<path d="M1104.99 1115.34C1046.66 1115.34 979.9 1109.39 903.68 1097.58C717.31 1068.69 393.8 984.78 16.0897 867.37C-170.98 809.22 -309.18 736.88 -394.67 652.36C-486.9 561.19 -516.49 456.79 -482.64 342.07C-469.46 297.39 -411.51 200.27 -331.41 88.61C-234.16 -46.99 -87.2103 -223.51 93.5397 -421.88C260.19 -605.49 411.08 -754.09 542.02 -863.54C699.28 -995 822.79 -1065.23 909.1 -1072.3C960.83 -1076.53 1014.45 -1092.13 1066.31 -1107.21C1160.31 -1134.55 1249.09 -1160.37 1323.01 -1121.36C1398.09 -1081.73 1470.7 -1042.27 1533.61 -995.35C1603.13 -943.5 1653.44 -887.4 1687.41 -823.84C1727.33 -749.15 1746.3 -662.51 1745.4 -558.94C1744.41 -444.58 1719.4 -311.81 1668.94 -153.03C1588.52 100.01 1553.5 333.74 1522.61 539.95C1509.01 630.73 1496.16 716.47 1480.77 793.41C1467.11 861.7 1451.23 912.53 1430.81 953.36C1406.94 1001.08 1375.89 1036.72 1335.89 1062.31C1280.41 1097.8 1205.14 1115.34 1104.99 1115.34ZM16.7997 865.07C394.4 982.45 717.79 1066.33 904.04 1095.2C1110.52 1127.21 1247.32 1116.11 1334.57 1060.28C1374.2 1034.92 1404.97 999.6 1428.64 952.28C1448.97 911.65 1464.78 861.01 1478.39 792.93C1493.77 716.04 1506.61 630.33 1520.21 539.58C1551.12 333.28 1586.16 99.46 1666.63 -153.77C1717.01 -312.31 1741.99 -444.85 1742.98 -558.97C1743.88 -662.12 1725 -748.39 1685.28 -822.71C1613.06 -957.83 1483.61 -1033.87 1321.88 -1119.23C1248.83 -1157.79 1160.5 -1132.1 1066.98 -1104.9C1015.01 -1089.78 961.27 -1074.15 909.3 -1069.9C823.5 -1062.88 700.44 -992.82 543.56 -861.69C412.7 -752.31 261.89 -603.79 95.3197 -420.26C-85.3703 -221.96 -232.26 -45.51 -329.46 90.01C-409.41 201.47 -467.22 298.31 -480.33 342.75C-513.91 456.56 -484.52 560.15 -392.98 650.65C-307.77 734.89 -169.9 807.03 16.7997 865.07Z" fill="#56C5D0"/>
<path d="M1091.64 1088.94C1026.61 1088.94 950.26 1080.63 859.38 1063.69C649.09 1024.5 305.42 922.29 -26.9302 823.45C-148.83 787.2 -250.08 744.46 -327.87 696.44C-408.41 646.72 -464.54 590.85 -494.67 530.4C-527.67 464.19 -529.9 391.71 -501.29 314.98C-484.46 269.84 -424.71 177.25 -345.35 73.34C-249.04 -52.79 -104.44 -216.21 84.4298 -412.4C252.1 -587.37 402.79 -728.87 532.31 -832.98C688.73 -958.7 811.13 -1026.93 896.11 -1035.77C948.39 -1041.21 1003.4 -1062.16 1056.59 -1082.42C1101.95 -1099.7 1144.79 -1116.01 1186.33 -1123.65C1232.9 -1132.21 1270.98 -1127.89 1302.75 -1110.43C1313.12 -1104.73 1323.46 -1099.08 1333.75 -1093.46C1478.19 -1014.54 1614.61 -940 1690 -804.85C1730.27 -732.67 1750.39 -648.69 1751.51 -548.11C1752.75 -436.66 1730.85 -306.67 1684.54 -150.72C1618.17 72.8101 1573.08 277.26 1533.29 457.64C1506.11 580.85 1480.45 697.22 1452.68 796.62C1434.38 862.14 1414.91 910.59 1391.42 949.1C1364.36 993.45 1330.92 1025.92 1289.2 1048.35C1244.3 1072.49 1189.08 1085.58 1120.38 1088.38C1111.06 1088.75 1101.47 1088.94 1091.64 1088.94ZM-26.2802 821.25C306.01 920.08 649.62 1022.27 859.8 1061.44C964.25 1080.9 1049.46 1088.96 1120.29 1086.08C1188.64 1083.3 1243.54 1070.3 1288.12 1046.32C1329.48 1024.08 1362.63 991.88 1389.47 947.89C1412.85 909.57 1432.24 861.3 1450.48 795.99C1478.23 696.65 1503.89 580.31 1531.06 457.13C1570.85 276.71 1615.96 72.22 1682.35 -151.38C1873.7 -795.83 1622.97 -932.83 1332.66 -1091.45C1322.37 -1097.07 1312.02 -1102.73 1301.65 -1108.43C1231.92 -1146.75 1147.15 -1114.47 1057.4 -1080.29C1004.07 -1059.98 948.92 -1038.98 896.34 -1033.51C811.8 -1024.72 689.8 -956.65 533.73 -831.21C404.3 -727.15 253.69 -585.72 86.0798 -410.81C-102.73 -214.69 -247.27 -51.3301 -343.55 74.73C-422.78 178.47 -482.41 270.84 -499.16 315.78C-527.54 391.89 -525.34 463.76 -492.63 529.38C-462.69 589.45 -406.85 645 -326.67 694.5C-249.05 742.41 -147.98 785.06 -26.2802 821.25Z" fill="#56C5D0"/>
<path d="M1076.82 1063.81C1075.12 1063.81 1073.42 1063.8 1071.71 1063.79C1001.58 1063.27 917.64 1052.15 815.09 1029.8C676.59 999.62 488.04 943.67 269.73 878.88C159.72 846.24 45.9699 812.48 -69.9501 779.53C-192.05 744.82 -292.57 703.64 -368.7 657.14C-446.5 609.63 -499.56 556.1 -526.41 498.05C-556.24 433.56 -554.07 362.86 -519.95 287.9C-499.14 242.18 -437.58 154.12 -359.3 58.0802C-262.85 -60.2598 -124.74 -206.75 75.3399 -402.92C244.04 -569.21 394.52 -703.61 522.6 -802.39C678.16 -922.37 799.46 -988.6 883.13 -999.24C935.14 -1005.86 990.75 -1032.24 1044.53 -1057.76C1086.45 -1077.65 1129.8 -1098.22 1170 -1108.43C1215.12 -1119.9 1251.92 -1116.98 1282.51 -1099.49C1307.52 -1085.19 1332.79 -1071.27 1357.23 -1057.8C1494.51 -982.16 1624.19 -910.71 1697.1 -780.41C1736.05 -710.81 1756.11 -629.75 1758.44 -532.58C1761.02 -424.88 1741.96 -299.21 1700.16 -148.39C1675.95 -61.0198 1653.24 22.2601 1631.28 102.79C1556.03 378.78 1491.04 617.13 1424.62 799.83C1401.84 862.49 1378.8 908.54 1352.11 944.75C1321.94 985.68 1286.12 1014.93 1242.59 1034.18C1197.48 1054.09 1143.21 1063.81 1076.82 1063.81ZM-69.3601 777.44C46.5699 810.4 160.33 844.16 270.34 876.8C488.62 941.57 677.13 997.51 815.55 1027.68C917.95 1050 1001.75 1061.1 1071.72 1061.62C1140.16 1062.13 1195.74 1052.49 1241.71 1032.17C1284.88 1013.08 1320.42 984.06 1350.36 943.44C1376.92 907.4 1399.87 861.53 1422.58 799.07C1488.97 616.46 1553.95 378.15 1629.19 102.2C1651.15 21.6602 1673.86 -61.6199 1698.07 -148.99C1739.81 -299.6 1758.84 -425.06 1756.27 -532.55C1753.95 -629.35 1733.98 -710.09 1695.21 -779.37C1622.6 -909.13 1493.19 -980.43 1356.19 -1055.92C1331.75 -1069.39 1306.47 -1083.32 1281.44 -1097.62C1250.95 -1115.05 1215.71 -1117.82 1170.54 -1106.34C1130.55 -1096.17 1087.3 -1075.65 1045.47 -1055.81C991.54 -1030.22 935.76 -1003.76 883.41 -997.1C800.13 -986.51 679.18 -920.42 523.93 -800.68C395.92 -701.94 245.5 -567.6 76.8499 -401.38C-123.17 -205.26 -261.23 -58.8298 -357.63 59.4502C-435.8 155.36 -497.25 243.24 -517.99 288.8C-551.84 363.16 -554.02 433.25 -524.46 497.14C-497.78 554.79 -445 608 -367.58 655.28C-291.61 701.68 -191.28 742.78 -69.3601 777.44Z" fill="#56C5D0"/>
<path d="M1060.57 1040.13C983.63 1040.13 889.27 1025.52 770.8 995.91C666.02 969.73 535.01 929.26 383.31 882.39C232.42 835.78 61.4101 782.95 -112.98 735.6C-235.1 702.44 -334.75 662.89 -409.15 618.03C-484.22 572.77 -534.33 521.65 -558.09 466.1C-584.98 403.23 -578.43 334.17 -538.62 260.83C-518.86 224.43 -465.05 148.05 -373.26 42.8202C-251.5 -96.7798 -74.4399 -263.66 66.2201 -393.45C235.97 -550.99 386.25 -678.28 512.88 -771.78C667.58 -886 787.78 -950.24 870.15 -962.72C921.36 -970.48 977.08 -1002.32 1030.97 -1033.12C1071.72 -1056.41 1113.86 -1080.49 1152.97 -1093.3C1196.93 -1107.7 1232.68 -1106.15 1262.27 -1088.57C1299.52 -1066.44 1337.4 -1045.83 1374.03 -1025.89C1506.54 -953.78 1631.7 -885.68 1703.55 -759.78C1741.94 -692.52 1762.39 -613.97 1766.06 -519.65C1770.13 -415.05 1753.68 -292.85 1715.78 -146.09C1665.54 48.4102 1611.67 230.5 1555.64 395.12C1504.08 546.6 1450.56 683.83 1396.54 803C1369.45 862.78 1342.85 906.4 1312.84 940.29C1279.65 977.77 1241.44 1003.77 1196.03 1019.77C1157.61 1033.3 1113.16 1040.13 1060.57 1040.13ZM-112.44 733.63C61.9901 780.99 233.02 833.82 383.92 880.44C535.59 927.29 666.58 967.76 771.3 993.93C970.34 1043.67 1101.12 1051.04 1195.36 1017.83C1240.43 1001.95 1278.36 976.14 1311.32 938.93C1341.19 905.2 1367.68 861.74 1394.69 802.16C1448.68 683.05 1502.18 545.88 1553.7 394.47C1609.71 229.89 1663.57 47.8501 1713.79 -146.59C1751.65 -293.16 1768.07 -415.16 1764.01 -519.56C1760.35 -613.54 1739.99 -691.78 1701.77 -758.75C1630.21 -884.14 1505.3 -952.11 1373.05 -1024.07C1336.4 -1044.01 1298.51 -1064.63 1261.22 -1086.79C1231.77 -1104.29 1197.57 -1105.73 1153.61 -1091.33C1114.7 -1078.58 1072.65 -1054.55 1031.99 -1031.32C977.94 -1000.43 922.05 -968.49 870.46 -960.67C788.43 -948.24 668.53 -884.13 514.11 -770.11C387.54 -676.67 237.32 -549.43 67.6201 -391.94C-73.0099 -262.18 -250.02 -95.3499 -371.71 44.1602C-431.82 113.08 -506.76 206.44 -536.81 261.8C-576.31 334.56 -582.83 403.02 -556.2 465.28C-532.61 520.43 -482.78 571.23 -408.09 616.26C-333.85 661.04 -234.38 700.52 -112.44 733.63Z" fill="#56C5D0"/>
<path d="M1044.1 1017.77C961.96 1017.77 859.35 999.52 726.52 962.03C643.44 938.58 546.15 906.78 433.49 869.95C256.87 812.21 56.7002 746.78 -156.01 691.68C-277.97 660.09 -376.63 622.22 -449.23 579.12C-521.63 536.14 -568.92 487.49 -589.79 434.52C-613.95 373.2 -603.01 305.65 -557.27 233.76C-533.68 196.69 -476.62 123.05 -387.2 27.5499C-270.15 -97.4701 -104.48 -244.12 57.1102 -383.97C440.23 -717.6 709.4 -900.03 857.17 -926.19C907.23 -935.05 962.71 -972.33 1016.36 -1008.39C1056.12 -1035.11 1097.24 -1062.74 1135.44 -1078.17C1178.43 -1095.54 1213.28 -1095.36 1242.01 -1077.65C1289.67 -1048.25 1338.72 -1022.3 1386.15 -997.2C1515.6 -928.71 1637.87 -864.02 1709.66 -742.13C1748.03 -676.98 1769.16 -600.62 1774.25 -508.7C1779.9 -406.68 1765.88 -287.31 1731.38 -143.78C1685.45 47.2999 1627.04 232.03 1557.76 405.29C1502.27 544.06 1440.35 675.19 1368.46 806.17C1337.21 863.1 1307.08 904.28 1273.63 935.77C1237.51 969.78 1196.92 992.48 1149.55 1005.18C1118.44 1013.54 1083.63 1017.77 1044.1 1017.77ZM-155.52 689.81C57.2402 744.92 257.45 810.36 434.09 868.1C546.73 904.92 644 936.72 727.04 960.16C923.45 1015.6 1053.6 1028.91 1149.06 1003.32C1196.11 990.71 1236.43 968.15 1272.31 934.37C1305.61 903.02 1335.62 861.99 1366.77 805.25C1438.62 674.34 1500.51 543.28 1555.97 404.58C1625.21 231.41 1683.59 46.7599 1729.5 -144.22C1763.96 -287.57 1777.96 -406.76 1772.32 -508.58C1767.25 -600.19 1746.2 -676.26 1707.99 -741.14C1636.48 -862.56 1514.45 -927.12 1385.24 -995.48C1337.78 -1020.59 1288.7 -1046.56 1240.99 -1075.99C1212.83 -1093.36 1178.54 -1093.49 1136.16 -1076.37C1098.15 -1061.01 1057.12 -1033.44 1017.44 -1006.78C963.62 -970.61 907.96 -933.21 857.5 -924.28C710.09 -898.19 441.23 -715.91 58.3802 -382.51C-103.17 -242.69 -268.79 -96.0901 -385.79 28.8799C-475.12 124.29 -532.1 197.81 -555.64 234.81C-601.03 306.15 -611.91 373.1 -587.99 433.82C-567.28 486.38 -520.26 534.71 -448.24 577.47C-375.79 620.47 -277.31 658.27 -155.52 689.81Z" fill="#56C5D0"/>
<path d="M1026.78 997.13C996.02 997.13 962.59 994.35 925.98 988.78C859.23 978.63 779.5 958.79 682.23 928.13C615.14 906.99 537 879.75 454.27 850.91C270.76 786.95 42.36 707.34 -199.03 647.76C-320.67 617.74 -418.22 581.62 -489 540.39C-558.82 499.72 -603.45 453.59 -621.65 403.26C-643.29 343.43 -627.91 277.3 -575.94 206.71C-548.08 168.87 -487.54 97.9301 -401.16 12.29C-282.04 -105.8 -120.72 -238.05 48.0101 -374.48C219.79 -514.31 369.66 -627.34 493.45 -710.43C646.39 -813.09 764.4 -873.39 844.19 -889.66C892.84 -899.58 947.84 -942.25 1001.02 -983.52C1039.93 -1013.71 1080.16 -1044.93 1117.57 -1063.02C1159.72 -1083.4 1193.8 -1084.61 1221.75 -1066.72C1278.37 -1030.49 1337.6 -1000.38 1394.89 -971.27C1522.57 -906.39 1643.17 -845.1 1715.62 -726.87C1754.37 -663.64 1776.39 -589.2 1782.94 -499.31C1790.22 -399.46 1778.46 -282.41 1746.99 -141.45C1724.1 -38.95 1695.65 62.25 1662.41 159.33C1632.7 246.11 1598.24 332.3 1559.98 415.5C1499.55 546.92 1429.78 672.06 1340.39 809.34C1269.43 918.31 1198.5 972.48 1103.19 990.46C1079.63 994.91 1054.28 997.13 1026.78 997.13ZM-198.6 646C42.8801 705.6 271.32 785.22 454.87 849.2C537.59 878.03 615.72 905.27 682.78 926.4C779.96 957.03 859.61 976.84 926.26 986.98C995.39 997.5 1053.16 998.05 1102.85 988.67C1197.62 970.79 1268.21 916.86 1338.87 808.34C1428.2 671.14 1497.94 546.07 1558.33 414.73C1596.56 331.58 1631 245.45 1660.69 158.73C1693.91 61.71 1722.35 -39.4199 1745.22 -141.86C1776.65 -282.64 1788.4 -399.53 1781.13 -499.19C1774.6 -588.79 1752.66 -662.95 1714.07 -725.93C1641.89 -843.72 1521.51 -904.9 1394.07 -969.66C1336.75 -998.79 1277.47 -1028.91 1220.78 -1065.2C1193.4 -1082.72 1159.9 -1081.47 1118.36 -1061.39C1081.12 -1043.38 1040.97 -1012.23 1002.13 -982.09C948.78 -940.7 893.62 -897.89 844.55 -887.89C764.99 -871.67 647.2 -811.46 494.45 -708.94C370.71 -625.86 220.89 -512.87 49.1501 -373.07C-119.55 -236.66 -280.82 -104.45 -399.88 13.59C-486.18 99.1599 -546.65 170.01 -574.47 207.79C-626.06 277.86 -641.36 343.42 -619.94 402.65C-601.89 452.56 -557.52 498.38 -488.09 538.82C-417.46 579.96 -320.06 616.02 -198.6 646Z" fill="#56C5D0"/>
<path d="M1009.38 978.2C918.46 978.2 803.35 951.91 637.95 894.25C583.65 875.32 523.04 852.71 458.88 828.77C264.5 756.25 22.5799 666 -242.06 603.84C-363.2 575.39 -459.58 541.06 -528.52 501.81C-595.87 463.47 -638.02 419.88 -653.78 372.26C-673.09 313.91 -653.18 249.11 -594.59 179.68C-578.77 160.94 -519.09 92.3701 -415.1 -2.94983C-290.25 -117.4 -115.39 -248.94 38.8999 -365C214.01 -497.64 359.52 -600.58 483.74 -679.7C635.79 -776.55 752.7 -834.9 831.22 -853.13C878.29 -864.06 932.61 -912.04 985.13 -958.45C1023.28 -992.16 1062.73 -1027.01 1099.44 -1047.8C1140.86 -1071.26 1174.24 -1073.87 1201.5 -1055.79C1265.9 -1013.06 1334.63 -979.84 1401.1 -947.72C1528 -886.39 1647.86 -828.46 1721.52 -713.58C1760.93 -652.11 1784 -579.37 1792.04 -491.21C1800.98 -393.21 1791.35 -278.04 1762.6 -139.14C1740.81 -33.8499 1711.54 69.5802 1675.6 168.29C1643.76 255.75 1605.63 342.36 1562.26 425.72C1477.4 588.85 1384.11 718.1 1312.32 812.48C1273.71 863.24 1235.47 900.57 1195.43 926.6C1153.73 953.7 1108.42 969.73 1056.91 975.58C1041.77 977.32 1025.97 978.2 1009.38 978.2ZM-241.67 602.19C23.0698 664.37 265.05 754.65 459.48 827.18C523.63 851.11 584.23 873.72 638.51 892.64C833.82 960.73 958.89 985.04 1056.71 973.91C1107.95 968.08 1153.02 952.15 1194.49 925.19C1234.37 899.27 1272.46 862.07 1310.96 811.46C1382.71 717.13 1475.95 587.96 1560.75 424.94C1604.08 341.64 1642.18 255.1 1674 167.71C1709.91 69.0801 1739.16 -34.2699 1760.93 -139.48C1789.65 -278.22 1799.27 -393.22 1790.34 -491.06C1782.32 -578.94 1759.34 -651.43 1720.08 -712.67C1646.68 -827.15 1527.03 -884.98 1400.35 -946.2C1333.83 -978.35 1265.05 -1011.59 1200.55 -1054.39C1173.88 -1072.09 1141.08 -1069.45 1100.27 -1046.34C1063.71 -1025.63 1024.33 -990.84 986.24 -957.19C933.56 -910.64 879.08 -862.51 831.59 -851.49C753.25 -833.3 636.52 -775.03 484.63 -678.28C360.45 -599.18 214.98 -496.26 39.8999 -363.66C-114.33 -247.61 -289.17 -116.1 -413.96 -1.69983C-517.87 93.5502 -577.5 162.05 -593.29 180.78C-651.47 249.73 -671.28 313.98 -652.16 371.73C-636.54 418.94 -594.65 462.21 -527.68 500.34C-458.88 539.5 -362.66 573.77 -241.67 602.19Z" fill="#56C5D0"/>
<path d="M992.55 961.01C945.05 961.01 891.4 953.41 829.22 937.91C764.84 921.86 690 897.22 593.68 860.35C550.18 843.7 503.31 824.95 453.68 805.11C251.28 724.16 -0.620056 623.41 -285.1 559.91C-523.62 506.67 -658.61 433.15 -686.3 341.39C-703.46 284.53 -678.89 221.03 -613.25 152.64C-589.8 128.2 -524.9 62.63 -429.05 -18.21C-307.77 -120.51 -151.32 -229.43 14.3099 -344.73L29.7899 -355.51C419.67 -628.91 677.58 -779.74 818.25 -816.6C863.62 -828.49 917.09 -881.7 968.81 -933.15C1006.27 -970.42 1045.01 -1008.97 1081.11 -1032.52C1121.88 -1059.12 1154.64 -1063.16 1181.24 -1044.86C1252.45 -995.9 1330.18 -960.46 1405.35 -926.19C1532.25 -868.34 1652.11 -813.69 1727.39 -701.9C1767.7 -642.04 1791.93 -570.81 1801.47 -484.14C1812.09 -387.7 1804.47 -274.09 1778.2 -136.8C1757.49 -28.59 1727.42 77.0901 1688.84 177.29C1654.82 265.62 1613.03 352.67 1564.6 435.99C1473.15 593.38 1371.55 716.22 1284.23 815.63C1241.86 863.87 1200.04 898.66 1156.39 921.98C1112.03 945.68 1064.38 958.32 1010.71 960.62C1004.77 960.88 998.71 961.01 992.55 961.01ZM1145.4 -1054.6C1141.64 -1054.6 1137.78 -1054.28 1133.8 -1053.64C1118.24 -1051.14 1101.29 -1043.8 1081.97 -1031.2C1046.01 -1007.74 1007.33 -969.25 969.92 -932.04C918.05 -880.44 864.42 -827.07 818.64 -815.08C678.16 -778.26 420.42 -627.51 30.6899 -354.22L15.21 -343.44C-150.39 -228.15 -306.8 -119.26 -428.03 -17C-523.82 63.8 -588.67 129.32 -612.11 153.74C-677.32 221.68 -701.77 284.67 -684.78 340.94C-657.26 432.11 -522.67 505.27 -284.74 558.38C-0.140015 621.91 251.82 722.68 454.28 803.65C503.9 823.5 550.77 842.24 594.26 858.89C690.51 895.73 765.3 920.36 829.61 936.39C899.7 953.86 958.92 961.28 1010.67 959.06C1064.09 956.77 1111.52 944.2 1155.67 920.61C1199.15 897.38 1240.82 862.71 1283.07 814.61C1370.34 715.26 1471.87 592.48 1563.26 435.22C1611.64 351.96 1653.4 265 1687.39 176.74C1725.94 76.62 1755.98 -28.96 1776.68 -137.08C1802.93 -274.21 1810.53 -387.68 1799.94 -483.95C1790.43 -570.37 1766.28 -641.36 1726.12 -701C1651.09 -812.42 1531.42 -866.98 1404.73 -924.74C1329.49 -959.04 1251.7 -994.51 1180.38 -1043.54C1169.61 -1050.95 1158.09 -1054.6 1145.4 -1054.6Z" fill="#56C5D0"/>
<path d="M975.28 945.68C971.75 945.68 968.21 945.64 964.65 945.55C911.88 944.26 851.8 933.38 780.99 912.27C718.75 893.72 645.17 866.45 549.42 826.46C515.44 812.27 479.86 797 442.19 780.84C233.59 691.35 -26.0201 579.97 -328.12 515.98C-563.99 466.03 -695.6 396.91 -719.3 310.57C-734.48 255.26 -705.08 193.04 -631.92 125.62C-591.45 88.3298 -525.82 30.46 -443.01 -33.4601C-323.76 -125.49 -173.44 -221.73 -14.2902 -323.63C-2.65015 -331.09 9.00989 -338.55 20.6799 -346.02C410.26 -597.45 666.91 -739.43 805.28 -780.07C848.84 -792.87 899.03 -848.59 952.16 -907.58C1026.36 -989.97 1103.09 -1075.16 1160.99 -1033.93C1238.19 -978.96 1324.56 -942.08 1408.09 -906.41C1535.61 -851.95 1656.06 -800.52 1733.3 -691.59C1774.68 -633.23 1800.17 -563.35 1811.21 -477.96C1823.51 -382.86 1817.82 -270.5 1793.81 -134.47C1774.19 -23.2701 1743.34 84.6499 1702.13 186.3C1665.92 275.62 1620.45 363.1 1567.01 446.3C1467.84 600.68 1354.23 721.22 1256.18 818.78C1168.26 906.24 1081.2 945.68 975.28 945.68ZM1128.09 -1043.18C1076.24 -1043.18 1013.89 -973.95 953.24 -906.6C899.97 -847.45 849.65 -791.58 805.69 -778.66C667.45 -738.06 410.92 -596.14 21.4598 -344.79C9.79987 -337.32 -1.86011 -329.85 -13.5101 -322.39C-172.63 -220.52 -322.92 -124.29 -442.11 -32.3C-524.88 31.59 -590.48 89.4199 -630.93 126.7C-703.66 193.72 -732.92 255.45 -717.9 310.18C-694.36 395.96 -563.12 464.72 -327.83 514.56C-25.5901 578.58 234.09 689.99 442.75 779.51C480.41 795.67 515.99 810.93 549.96 825.12C645.66 865.09 719.19 892.34 781.38 910.87C852.07 931.94 912.02 942.81 964.66 944.09C1074.99 946.77 1164.58 907.81 1255.12 817.73C1353.12 720.23 1466.66 599.76 1565.76 445.5C1619.16 362.38 1664.58 274.98 1700.76 185.74C1741.93 84.1898 1772.75 -23.64 1792.36 -134.73C1816.34 -270.62 1822.03 -382.83 1809.75 -477.78C1798.74 -562.94 1773.33 -632.6 1732.1 -690.76C1655.09 -799.35 1534.83 -850.71 1407.5 -905.08C1323.9 -940.78 1237.46 -977.69 1160.13 -1032.75C1150.03 -1039.94 1139.3 -1043.18 1128.09 -1043.18Z" fill="#56C5D0"/>
<path d="M958.49 932.2C945.47 932.2 932.22 931.6 918.66 930.4C805.38 920.41 676.45 870.26 505.14 792.58C479.81 781.09 453.91 769.18 426.5 756.56C212.9 658.26 -52.9401 535.92 -371.16 472.06C-604.31 425.27 -732.74 360.55 -752.87 279.67C-766.23 226 -731.82 165.08 -650.6 98.6C-584.6 44.58 -521.26 -3.61011 -456.97 -48.7101C-338.35 -131.91 -192 -217.48 -37.0601 -308.08C-20.8801 -317.54 -4.6601 -327.02 11.5499 -336.52C399.74 -565.49 655.12 -698.62 792.3 -743.54C834 -757.19 883.17 -817.67 935.23 -881.71C1008.4 -971.71 1084.05 -1064.77 1140.72 -1023.02C1223.22 -962.22 1317.96 -924.56 1409.58 -888.15C1538.23 -837.02 1659.75 -788.72 1739.22 -682.46C1781.82 -625.5 1808.63 -556.84 1821.18 -472.54C1835.17 -378.59 1831.32 -267.24 1809.41 -132.15C1790.89 -17.9401 1759.28 92.23 1715.46 195.3C1677.04 285.68 1627.91 373.59 1569.45 456.61C1462.02 609.17 1336.61 726.87 1228.11 821.88C1142 897.3 1057.44 932.2 958.49 932.2ZM1110.35 -1031.94C1059.1 -1031.94 996.83 -955.35 936.28 -880.86C884.1 -816.67 834.81 -756.04 792.73 -742.26C655.65 -697.38 400.35 -564.28 12.2399 -335.36C-3.98004 -325.86 -20.2001 -316.38 -36.3801 -306.91C-191.3 -216.34 -337.62 -130.78 -456.19 -47.6001C-520.45 -2.52014 -583.77 45.6499 -649.74 99.6499C-730.52 165.77 -764.78 226.23 -751.56 279.35C-731.57 359.67 -603.49 424.07 -370.89 470.74C-52.5101 534.63 213.4 657 427.07 755.33C454.48 767.95 480.38 779.86 505.71 791.35C676.89 868.97 805.71 919.09 918.79 929.06C932.28 930.25 945.51 930.85 958.47 930.85C1057.1 930.85 1141.37 896.06 1227.23 820.87C1335.68 725.91 1461.01 608.28 1568.36 455.84C1626.77 372.9 1675.85 285.06 1714.23 194.78C1758.01 91.8099 1789.59 -18.2501 1808.09 -132.36C1829.98 -267.32 1833.83 -378.52 1819.86 -472.34C1807.34 -556.41 1780.61 -624.88 1738.15 -681.66C1658.9 -787.62 1537.56 -835.85 1409.09 -886.91C1317.39 -923.36 1222.57 -961.04 1139.93 -1021.95C1130.59 -1028.82 1120.69 -1031.94 1110.35 -1031.94Z" fill="#56C5D0"/>
<path d="M941.81 920.52C919.57 920.52 896.62 918.74 872.8 915.2C761.51 898.63 637.5 845.27 460.89 758.7C443.63 750.24 426.33 741.7 408.01 732.66C190.21 625.17 -80.8401 491.4 -414.19 428.14C-532.12 405.76 -623.42 378.81 -685.53 348.05C-744.62 318.78 -778.76 285.33 -787.03 248.62C-798.72 196.7 -759.1 137.14 -669.27 71.61C-624.64 39.0499 -555.53 -10.42 -470.92 -63.9301C-351.54 -139.43 -207.19 -215.92 -54.3701 -296.9C-35.4701 -306.92 -16.5201 -316.96 2.42987 -327.02C380.97 -529.4 642.36 -657.25 779.33 -707C819.12 -721.46 867.19 -786.56 918.08 -855.48C975.74 -933.57 1035.37 -1014.33 1085.27 -1021.44C1098.06 -1023.27 1109.9 -1020.11 1120.44 -1012.07C1207.64 -945.58 1310.54 -907.73 1410.05 -871.14C1540.25 -823.26 1663.23 -778.03 1745.16 -674.27C1789.1 -618.63 1817.29 -551.06 1831.35 -467.71C1847.03 -374.74 1844.96 -264.2 1825 -129.79C1807.59 -12.54 1775.23 99.88 1728.81 204.35C1688.17 295.82 1635.38 384.19 1571.91 467C1455.76 618.54 1318.74 733.02 1200.03 825.03C1146.6 866.43 1094.13 893.59 1039.62 908.05C1008.2 916.36 975.81 920.52 941.81 920.52ZM1092.23 -1020.74C1090.01 -1020.74 1087.75 -1020.58 1085.47 -1020.25C1036.07 -1013.21 976.6 -932.66 919.09 -854.77C868.09 -785.69 819.91 -720.45 779.77 -705.87C642.85 -656.13 381.51 -528.31 3.0199 -325.95C-15.9301 -315.89 -34.8801 -305.84 -53.7802 -295.83C-206.59 -214.86 -350.92 -138.38 -470.26 -62.9001C-554.84 -9.40009 -623.93 40.0499 -668.54 72.6C-757.94 137.82 -797.4 196.95 -785.83 248.35C-777.65 284.68 -743.72 317.86 -684.98 346.95C-622.97 377.67 -531.78 404.58 -413.96 426.94C-80.4501 490.22 190.69 624.04 408.55 731.56C426.87 740.6 444.17 749.14 461.43 757.6C637.93 844.12 761.85 897.44 872.98 913.99C933.07 922.93 987.49 920.6 1039.33 906.85C1093.68 892.44 1146.01 865.35 1199.31 824.05C1317.96 732.1 1454.91 617.68 1570.97 466.25C1634.38 383.52 1687.12 295.23 1727.72 203.85C1774.09 99.48 1806.43 -12.83 1823.82 -129.98C1843.76 -264.27 1845.84 -374.68 1830.17 -467.52C1816.14 -550.66 1788.03 -618.05 1744.22 -673.53C1662.51 -777.01 1539.68 -822.18 1409.65 -870.01C1310.05 -906.64 1207.07 -944.51 1119.72 -1011.12C1111.33 -1017.51 1102.11 -1020.74 1092.23 -1020.74Z" fill="#56C5D0"/>
<path d="M925.24 910.54C893.83 910.54 861.27 907.01 827.02 899.93C707.18 875.16 575.85 808.88 416.62 724.81C407.05 719.75 397.37 714.64 387.6 709.47C166.17 592.3 -109.42 446.49 -457.22 384.21C-574.15 363.27 -664.18 338.14 -724.82 309.5C-782.27 282.37 -814.91 251.34 -821.82 217.28C-827.04 191.55 -817.71 163.52 -794.09 133.96C-771.76 106.03 -736.05 75.96 -687.94 44.6C-617.62 -1.24005 -551.2 -41.73 -484.86 -79.1801C-363.06 -147.95 -218.49 -216.74 -65.42 -289.56C-45.87 -298.86 -26.27 -308.19 -6.67999 -317.53C333.77 -480.86 622.76 -612.8 766.38 -670.48C804.24 -685.69 851.14 -755.25 900.78 -828.9C958.27 -914.2 1017.73 -1002.4 1067.17 -1010.12C1079.17 -1011.99 1090.28 -1008.98 1100.19 -1001.16C1191.57 -929.09 1302.47 -891.57 1409.72 -855.28C1670.04 -767.2 1915.92 -684 1840.62 -127.47C1824.34 -7.17004 1791.24 107.51 1742.23 213.37C1699.36 305.97 1642.91 394.79 1574.44 477.37C1516.77 546.92 1450.75 612.49 1372.59 677.84C1299.71 738.77 1227.11 790.16 1172 828.12C1114.9 867.45 1058.9 892.07 1000.81 903.36C976.2 908.14 951.1 910.54 925.24 910.54ZM1073.98 -1009.56C1071.8 -1009.56 1069.59 -1009.39 1067.35 -1009.03C1018.38 -1001.38 959.07 -913.38 901.71 -828.29C851.97 -754.5 804.98 -684.79 766.8 -669.46C623.2 -611.79 334.23 -479.85 -6.20001 -316.54C-25.79 -307.19 -45.39 -297.87 -64.94 -288.57C-217.99 -215.75 -362.55 -146.97 -484.33 -78.21C-550.64 -40.77 -617.05 -0.2901 -687.34 45.5299C-735.35 76.83 -770.97 106.81 -793.23 134.65C-816.64 163.94 -825.9 191.67 -820.74 217.06C-813.9 250.76 -781.47 281.53 -724.35 308.5C-663.8 337.09 -573.86 362.2 -457.03 383.12C-109.06 445.43 166.62 591.28 388.12 708.48C397.89 713.65 407.57 718.77 417.14 723.82C576.29 807.85 707.54 874.1 827.24 898.83C889.53 911.7 946.24 912.82 1000.59 902.26C1058.53 890.99 1114.4 866.44 1171.37 827.19C1400.63 669.26 1503.35 561.37 1573.59 476.65C1642 394.14 1698.4 305.4 1741.23 212.9C1790.19 107.14 1823.27 -7.43005 1839.53 -127.63C1857.64 -261.47 1858.01 -371.27 1840.65 -463.28C1825.12 -545.62 1795.57 -612.02 1750.32 -666.28C1665.95 -767.43 1541.32 -809.6 1409.37 -854.25C1302.03 -890.57 1191.04 -928.12 1099.51 -1000.31C1091.71 -1006.46 1083.14 -1009.56 1073.98 -1009.56Z" fill="#56C5D0"/>
<path d="M908.66 902.13C868.11 902.13 826.05 896.32 781.36 884.62C656.23 851.86 518.35 773.68 372.38 690.92L369.31 689.18C256.63 625.29 128.92 552.88 -14.5601 489.54C-179.61 416.68 -338.48 367.86 -500.25 340.28C-616.07 320.97 -704.87 297.74 -764.18 271.23C-820.16 246.2 -851.49 217.52 -857.27 185.98C-861.85 161.04 -850.58 133.71 -823.79 104.76C-798.72 77.6699 -759.3 48.3499 -706.62 17.6099C-640.25 -21.1201 -570.34 -58.8102 -498.82 -94.4102C-372.12 -157.49 -224.2 -219.98 -67.5901 -286.14C-50.3401 -293.43 -33.0701 -300.72 -15.8001 -308.03C106.38 -359.98 231.33 -412.48 341.57 -458.8C512.66 -530.69 660.42 -592.77 753.43 -633.96C789.36 -649.87 835 -723.73 883.33 -801.92C940.66 -894.69 999.95 -990.61 1048.94 -998.85C1060.2 -1000.74 1070.62 -997.85 1079.94 -990.25C1175.05 -912.7 1293.82 -875.93 1408.68 -840.38C1476.24 -819.47 1540.06 -799.71 1599.73 -772.23C1667.38 -741.08 1717.41 -705.54 1757.19 -660.39C1804.09 -607.16 1835.19 -541.51 1852.26 -459.69C1871.34 -368.28 1872.64 -258.85 1856.24 -125.14C1841.11 -1.78015 1807.28 115.15 1755.68 222.41C1710.58 316.15 1650.46 405.43 1576.99 487.77C1442.26 638.75 1282.49 746.11 1143.97 831.21C1083.18 868.56 1023.67 890.63 962.03 898.68C944.46 900.98 926.71 902.13 908.66 902.13ZM1055.51 -998.42C1053.41 -998.42 1051.27 -998.24 1049.1 -997.87C1000.55 -989.71 941.39 -893.98 884.17 -801.4C835.76 -723.07 790.03 -649.08 753.83 -633.05C660.81 -591.86 513.04 -529.77 341.95 -457.89C231.71 -411.57 106.76 -359.07 -15.4201 -307.12C-32.6901 -299.81 -49.9601 -292.52 -67.2101 -285.23C-223.8 -219.08 -371.71 -156.59 -498.4 -93.5201C-569.9 -57.9301 -639.8 -20.2501 -706.14 18.4698C-758.73 49.1598 -798.07 78.4198 -823.08 105.44C-849.65 134.15 -860.83 161.19 -856.32 185.81C-850.59 217.01 -819.46 245.45 -763.79 270.34C-704.56 296.82 -615.84 320.03 -500.1 339.32C-338.26 366.91 -179.31 415.76 -14.1801 488.65C129.35 552 257.08 624.42 369.78 688.32L372.85 690.06C518.77 772.79 656.59 850.94 781.6 883.66C846.07 900.54 905.04 905.13 961.88 897.7C1023.38 889.66 1082.77 867.63 1143.43 830.36C1281.89 745.29 1441.59 637.99 1576.23 487.1C1649.64 404.83 1709.71 315.63 1754.77 221.97C1806.32 114.81 1840.13 -2.02014 1855.24 -125.27C1923.28 -680.06 1673.17 -757.49 1408.36 -839.45C1293.41 -875.03 1174.54 -911.82 1079.29 -989.5C1072.02 -995.43 1064.04 -998.42 1055.51 -998.42Z" fill="#56C5D0"/>
<path d="M892.05 895.37C844.67 895.37 795.78 887.6 743.61 871.86C620.44 834.68 493.53 757.56 346.57 668.25L328.12 657.04C204.74 582.12 82.5399 509.64 -55.7802 446.45C-219.57 371.63 -379.04 322.53 -543.29 296.36C-658.09 278.3 -745.72 256.72 -803.75 232.23C-858.42 209.16 -888.56 182.75 -893.33 153.73C-897.27 129.75 -884.01 103.32 -853.9 75.16C-826.05 49.11 -782.79 20.67 -725.32 -9.37994C-664.53 -41.1699 -591.04 -75.84 -512.79 -109.64C-376.27 -168.62 -211.71 -229.46 -52.5801 -288.3L-24.9401 -298.52C10.4299 -311.64 45.7899 -324.72 80.8899 -337.71C351.14 -437.69 606.4 -532.13 740.46 -597.43C774.45 -613.99 818.8 -691.96 865.75 -774.51C922.92 -875.02 982.03 -978.96 1030.56 -987.62C1041.11 -989.5 1050.9 -986.71 1059.65 -979.33C1158.07 -896.37 1284.75 -860.74 1407.25 -826.28C1473.03 -807.78 1541.04 -788.65 1602.06 -762.53C1670.32 -733.32 1723.21 -697.94 1763.76 -654.37C1812.26 -602.26 1844.83 -537.46 1863.33 -456.25C1884.02 -365.46 1886.8 -256.39 1871.83 -122.78C1858.06 3.66003 1823.63 122.89 1769.51 231.58C1722.23 326.54 1658.45 416.32 1579.94 498.44C1513.81 567.61 1437.72 631.56 1347.34 693.96C1262.05 752.84 1178.86 799.91 1115.91 834.33C1052.74 869.18 991.01 888.68 927.21 893.95C915.57 894.89 903.85 895.37 892.05 895.37ZM1036.85 -987.32C1034.84 -987.32 1032.79 -987.14 1030.72 -986.77C982.59 -978.18 923.58 -874.42 866.51 -774.08C819.49 -691.41 775.08 -613.33 740.85 -596.65C606.76 -531.33 351.47 -436.89 81.1999 -336.9C46.0899 -323.91 10.7399 -310.83 -24.6301 -297.71L-52.2701 -287.49C-211.4 -228.65 -375.94 -167.82 -512.46 -108.84C-590.68 -75.05 -664.15 -40.39 -724.93 -8.60999C-782.33 21.41 -825.53 49.8101 -853.32 75.8C-883.2 103.74 -896.37 129.92 -892.48 153.59C-887.76 182.29 -857.8 208.48 -803.42 231.43C-745.45 255.89 -657.89 277.45 -543.16 295.5C-378.82 321.68 -219.28 370.8 -55.4201 445.65C82.9399 508.87 205.17 581.37 328.57 656.3L347.02 667.51C493.93 756.78 620.8 833.88 743.86 871.03C808.92 890.67 868.87 897.88 927.14 893.07C990.82 887.81 1052.43 868.35 1115.5 833.56C1178.43 799.14 1261.59 752.09 1346.85 693.24C1437.18 630.88 1513.23 566.97 1579.32 497.84C1657.77 415.79 1721.5 326.08 1768.74 231.2C1822.81 122.6 1857.21 3.47009 1870.97 -122.87C1885.93 -256.37 1883.15 -365.36 1862.49 -456.05C1844.02 -537.1 1811.52 -601.77 1763.13 -653.77C1722.67 -697.25 1669.87 -732.56 1601.72 -761.72C1540.76 -787.81 1472.77 -806.93 1407.02 -825.43C1284.43 -859.91 1157.66 -895.57 1059.1 -978.65C1052.28 -984.42 1044.82 -987.32 1036.85 -987.32Z" fill="#56C5D0"/>
<path d="M875.69 889.43C821.1 889.43 765.19 879.48 706.54 859.65C583.12 817.94 461.43 738.72 320.51 646.99C204.15 571.25 72.2799 485.4 -76.0301 413.33C-245.85 330.8 -412.78 278.18 -586.33 252.44C-701.43 235.37 -788.63 215.12 -845.48 192.26C-898.93 170.76 -927.44 146.17 -930.22 119.16C-936.7 56.0901 -808.5 -21.44 -526.77 -124.86C-365.6 -184.02 -172.93 -245.04 13.3999 -304.05C308.36 -397.46 586.96 -485.69 727.53 -560.9C759.61 -578.06 802.6 -659.94 848.11 -746.63C905.1 -855.17 964.02 -967.4 1012.1 -976.42C1021.99 -978.28 1031.18 -975.58 1039.41 -968.41C1140.78 -880.12 1275.01 -845.98 1404.82 -812.97C1471.75 -795.95 1540.96 -778.35 1603.3 -753.59C1673.08 -725.88 1727.37 -691.69 1769.28 -649.04C1819.44 -598.01 1853.58 -533.98 1873.67 -453.29C1896.15 -363.02 1900.66 -254.14 1887.46 -120.45C1874.67 9.02997 1839.41 130.48 1782.64 240.51C1733.07 336.58 1665.61 426.79 1582.12 508.63C1511.81 577.55 1430.77 640.7 1334.38 701.67C1243.14 759.38 1154.73 804.53 1087.89 837.41C1017.25 872.15 947.61 889.43 875.69 889.43ZM-586.23 251.69C-412.59 277.44 -245.6 330.09 -75.7101 412.65C72.6499 484.75 204.55 570.6 320.91 646.36C598.34 826.96 817.46 969.6 1087.55 836.73C1154.37 803.86 1242.76 758.73 1333.96 701.03C1430.3 640.09 1511.3 576.97 1581.57 508.09C1665 426.3 1732.42 336.16 1781.95 240.16C1838.67 130.21 1873.91 8.86005 1886.69 -120.53C1899.88 -254.14 1895.38 -362.93 1872.92 -453.12C1852.86 -533.67 1818.78 -597.59 1768.72 -648.53C1726.89 -691.1 1672.68 -725.24 1603 -752.9C1540.7 -777.64 1471.51 -795.23 1404.61 -812.25C1274.72 -845.28 1140.4 -879.44 1038.9 -967.85C1030.85 -974.86 1021.88 -977.5 1012.22 -975.69C990.9 -971.69 965.2 -946.18 933.65 -897.71C905.72 -854.79 876.76 -799.63 848.75 -746.29C803.18 -659.5 760.14 -577.52 727.86 -560.25C587.25 -485 308.61 -396.76 13.6199 -303.34C-172.7 -244.33 -365.37 -183.32 -526.52 -124.16C-658.32 -75.78 -754.42 -33.99 -820.33 3.59003C-857.28 24.66 -885.18 44.77 -903.26 63.38C-922.43 83.11 -931.26 101.85 -929.49 119.08C-926.75 145.79 -898.4 170.17 -845.22 191.56C-788.41 214.4 -701.28 234.64 -586.23 251.69Z" fill="#56C5D0"/>
</g>
<defs>
<clipPath id="clip0_2285_782">
<rect width="1920" height="960" fill="white"/>
</clipPath>
</defs>
</svg>
