<svg width="90" height="24" viewBox="0 0 90 24" fill="none" xmlns="http://www.w3.org/2000/svg">
<path d="M13.1112 19.238H10.2732C10.2165 19.238 10.1313 19.2664 10.103 19.3231C10.0462 19.3798 10.0178 19.4365 10.0178 19.4931V23.7449C10.0178 23.8016 10.0462 23.8866 10.103 23.915C10.1597 23.9716 10.2165 24 10.2732 24H13.1112C13.1679 24 13.2531 23.9716 13.2815 23.915C13.3382 23.8583 13.3666 23.8016 13.3666 23.7449V19.4931C13.3666 19.4365 13.3382 19.3514 13.2815 19.3231C13.2531 19.2664 13.1963 19.238 13.1112 19.238Z" fill="#FFDC00"/>
<path d="M23.1576 10.6496H18.2479C18.2196 10.6496 18.2196 10.6496 18.1912 10.6213C18.1628 10.6213 18.1628 10.5929 18.1628 10.5646C18.1628 10.5362 18.1628 10.5362 18.1628 10.5079C18.1628 10.4795 18.1912 10.4795 18.1912 10.4795L22.4197 8.04186C22.4765 8.01352 22.5332 7.95683 22.5332 7.90014C22.5616 7.84345 22.5332 7.75841 22.5049 7.70173L21.0859 5.23571C21.0575 5.17902 21.0007 5.12233 20.944 5.12233C20.8872 5.09399 20.8021 5.12233 20.7453 5.15068L16.5168 7.58835C16.4884 7.58835 16.4884 7.58835 16.46 7.58835C16.4317 7.58835 16.4317 7.58835 16.4033 7.56C16.4033 7.56 16.3749 7.53166 16.3749 7.50331C16.3749 7.47497 16.3749 7.47497 16.3749 7.44662L18.8723 3.25156C18.9007 3.22322 18.9007 3.19487 18.9007 3.16653C18.9007 3.13818 18.9007 3.10984 18.9007 3.05315C18.9007 3.0248 18.8723 2.99646 18.8439 2.96811C18.8155 2.93977 18.7872 2.91142 18.7588 2.91142L16.3181 1.49417C16.2614 1.46583 16.1763 1.43748 16.1195 1.46583C16.0627 1.49417 16.006 1.52252 15.9776 1.57921L13.537 5.80261C13.537 5.83096 13.5086 5.83096 13.5086 5.83096C13.4802 5.83096 13.4802 5.83096 13.4518 5.83096C13.4235 5.83096 13.4235 5.80261 13.3951 5.80261C13.3951 5.77427 13.3667 5.77427 13.3667 5.74592V0.870583C13.3667 0.842238 13.3667 0.813893 13.3383 0.785548C13.3383 0.757203 13.3099 0.728858 13.2816 0.700513C13.2532 0.672168 13.2248 0.672168 13.1964 0.643823C13.168 0.643823 13.1397 0.615479 13.1113 0.615479H10.2733C10.245 0.615479 10.2166 0.615478 10.1882 0.643823C10.1598 0.643823 10.1314 0.672168 10.1031 0.700513C10.0747 0.728858 10.0747 0.757203 10.0463 0.785548C10.0463 0.813893 10.0179 0.842238 10.0179 0.870583V5.74592C10.0179 5.77427 10.0179 5.77427 9.98954 5.80261C9.98954 5.83096 9.96116 5.83096 9.93279 5.83096C9.90441 5.83096 9.90441 5.83096 9.87603 5.83096C9.84765 5.83096 9.84765 5.80261 9.84765 5.80261L7.4354 1.57921C7.40702 1.52252 7.35026 1.46583 7.2935 1.46583C7.23674 1.46583 7.15161 1.46583 7.09485 1.49417L4.62584 2.91142C4.59746 2.93977 4.56908 2.93977 4.5407 2.96811C4.51232 2.99646 4.51232 3.0248 4.48394 3.05315C4.48394 3.08149 4.48394 3.10984 4.48394 3.16653C4.48394 3.22322 4.51232 3.22322 4.51232 3.25156L6.95295 7.47497C6.95295 7.50331 6.95295 7.50331 6.95295 7.53165C6.95295 7.56 6.95295 7.56 6.92457 7.58835C6.92457 7.58835 6.89619 7.61669 6.86781 7.61669C6.83943 7.61669 6.83943 7.61669 6.81105 7.61669L2.58252 5.17902C2.52577 5.15068 2.46901 5.12233 2.38387 5.15068C2.32711 5.17902 2.27035 5.20737 2.24197 5.26406L0.823002 7.73007C0.794623 7.78676 0.766243 7.84345 0.794623 7.92849C0.823002 7.98518 0.851382 8.04187 0.908141 8.07021L5.13667 10.5079C5.16505 10.5079 5.16505 10.5362 5.16505 10.5362C5.16505 10.5646 5.16505 10.5646 5.16505 10.5929C5.16505 10.6213 5.13667 10.6213 5.13667 10.6496C5.10829 10.6496 5.10829 10.6779 5.07991 10.6779H0.255414C0.227035 10.6779 0.198656 10.6779 0.170276 10.7063C0.141897 10.7346 0.113518 10.7346 0.0851382 10.763C0.0567588 10.7913 0.0567589 10.8197 0.0283795 10.848C0.0283795 10.8764 0 10.9047 0 10.9331V13.7676C0 13.7959 1.07836e-07 13.8242 0.0283795 13.8526C0.0283795 13.8809 0.0567588 13.9093 0.0851382 13.9376C0.113518 13.966 0.141897 13.966 0.170276 13.9943C0.198656 13.9943 0.227035 14.0227 0.255414 14.0227H5.16505C5.19343 14.0227 5.19343 14.0227 5.22181 14.051C5.25019 14.051 5.25019 14.0793 5.25019 14.1077C5.25019 14.136 5.25019 14.136 5.25019 14.1644C5.25019 14.1927 5.22181 14.1927 5.22181 14.1927L0.993279 16.6304C0.964899 16.6587 0.93652 16.6587 0.908141 16.6871C0.879761 16.7154 0.879761 16.7438 0.851382 16.7721C0.851382 16.8005 0.851382 16.8288 0.851382 16.8572C0.851382 16.8855 0.879761 16.9138 0.879761 16.9422L2.29873 19.4082C2.32711 19.4365 2.32711 19.4649 2.35549 19.4932C2.38387 19.5216 2.41225 19.5216 2.44063 19.5499C2.46901 19.5499 2.49739 19.5499 2.52577 19.5499C2.55414 19.5499 2.58252 19.5216 2.6109 19.5216L6.83943 17.0839C6.86781 17.0839 6.86781 17.0839 6.89619 17.0839C6.92457 17.0839 6.92457 17.0839 6.95295 17.1123C6.95295 17.1123 6.98133 17.1406 6.98133 17.1689C6.98133 17.1973 6.98133 17.1973 6.98133 17.2256L4.5407 21.449C4.51232 21.4774 4.51232 21.5057 4.51232 21.5341C4.51232 21.5624 4.51232 21.5908 4.51232 21.6191C4.51232 21.6475 4.5407 21.6758 4.56908 21.7041C4.59746 21.7325 4.62584 21.7608 4.65422 21.7608L7.12323 23.1781C7.17998 23.2064 7.23674 23.2064 7.32188 23.2064C7.37864 23.1781 7.4354 23.1497 7.46378 23.0931L9.79089 19.0397L11.295 16.432C11.3234 16.4036 11.3234 16.3469 11.3234 16.2903C11.3234 16.2336 11.295 16.2052 11.2666 16.1485L9.93279 14.1644C9.93279 14.136 9.90441 14.136 9.90441 14.1077C9.90441 14.0793 9.90441 14.0793 9.90441 14.051C9.90441 14.0227 9.93279 14.0227 9.93279 14.0227C9.96116 14.0227 9.96116 13.9943 9.98954 13.9943H13.3383C13.3667 13.9943 13.3667 13.9943 13.3951 14.0227C13.4235 14.0227 13.4234 14.051 13.4234 14.051C13.4234 14.0793 13.4234 14.0793 13.4234 14.1077C13.4234 14.136 13.4235 14.136 13.3951 14.1644L12.0612 16.1485C12.0329 16.1769 12.0329 16.2336 12.0045 16.2903C12.0045 16.3469 12.0045 16.3753 12.0329 16.432L13.4802 18.898L15.8925 23.0647C15.9208 23.1214 15.9776 23.1781 16.0344 23.1781C16.0911 23.2064 16.1763 23.1781 16.233 23.1497L18.702 21.7325C18.7304 21.7041 18.7588 21.7041 18.7872 21.6758C18.8155 21.6475 18.8155 21.6191 18.8439 21.5908C18.8439 21.5624 18.8439 21.5341 18.8439 21.5057C18.8439 21.4774 18.8155 21.449 18.8155 21.4207L16.3749 17.1973C16.3749 17.169 16.3749 17.1689 16.3749 17.1406C16.3749 17.1123 16.3749 17.1123 16.4033 17.0839C16.4033 17.0839 16.4317 17.0556 16.46 17.0556C16.4884 17.0556 16.4884 17.0556 16.5168 17.0556L20.7453 19.4932C20.7737 19.5216 20.8021 19.5216 20.8305 19.5216C20.8589 19.5216 20.8872 19.5216 20.9156 19.5216C20.944 19.5216 20.9724 19.4932 21.0007 19.4649C21.0291 19.4365 21.0575 19.4082 21.0575 19.3799L22.4765 16.9138C22.5049 16.8572 22.5332 16.8005 22.5049 16.7154C22.4765 16.6587 22.4481 16.6021 22.3913 16.5737L18.1628 14.136C18.1344 14.136 18.1344 14.1077 18.1344 14.1077C18.1344 14.0793 18.1344 14.0793 18.1344 14.051C18.1344 14.0227 18.1628 14.0227 18.1628 13.9943C18.1912 13.9943 18.1912 13.966 18.2196 13.966H23.1292C23.1576 13.966 23.186 13.966 23.2143 13.9376C23.2427 13.9376 23.2711 13.9093 23.2995 13.8809C23.3279 13.8526 23.3279 13.8242 23.3562 13.7959C23.3846 13.7676 23.3846 13.7392 23.3846 13.7109V10.8764C23.3846 10.8197 23.3562 10.7346 23.2995 10.7063C23.2711 10.6779 23.2143 10.6496 23.1576 10.6496Z" fill="#FFDC00"/>
<path d="M40.815 8.11987H39.3718C39.1737 8.11987 39.0322 8.28911 39.0322 8.45835V17.992C39.0322 18.1894 39.202 18.3305 39.3718 18.3305H40.815C41.013 18.3305 41.1545 18.1612 41.1545 17.992V8.45835C41.1828 8.28911 41.013 8.11987 40.815 8.11987Z" fill="white"/>
<path d="M32.5805 13.2252L37.3628 8.40197C37.476 8.28914 37.3911 8.0917 37.2496 8.0917H35.1556C35.0141 8.0917 34.8726 8.14811 34.7877 8.26094L30.4299 12.6611V4.3685C30.4299 4.17106 30.2601 4.03003 30.0904 4.03003H28.6472C28.4491 4.03003 28.3076 4.19927 28.3076 4.3685V17.992C28.3076 18.1895 28.4774 18.3305 28.6472 18.3305H30.0904C30.2884 18.3305 30.4299 18.1613 30.4299 17.992V13.7893L34.7877 18.1895C34.8726 18.2741 35.0141 18.3587 35.1556 18.3587H37.2496C37.4194 18.3587 37.476 18.1613 37.3628 18.0484L32.5805 13.2252Z" fill="white"/>
<path d="M77.5449 8.11987H76.1018C75.9037 8.11987 75.7622 8.28911 75.7622 8.45835V17.992C75.7622 18.1894 75.932 18.3305 76.1018 18.3305H77.5449C77.743 18.3305 77.8845 18.1612 77.8845 17.992V8.45835C77.8845 8.28911 77.743 8.11987 77.5449 8.11987Z" fill="white"/>
<path d="M77.0075 6.17384C77.6583 6.06102 78.1111 5.46869 77.9979 4.81995C77.8847 4.17121 77.2905 3.71991 76.6396 3.83274C75.9888 3.94556 75.536 4.53789 75.6492 5.18663C75.7624 5.83537 76.3566 6.28667 77.0075 6.17384Z" fill="white"/>
<path d="M40.3058 6.20192C40.9567 6.08909 41.4094 5.49677 41.2962 4.84803C41.183 4.19929 40.5888 3.74799 39.938 3.86082C39.2871 3.97364 38.8344 4.56597 38.9475 5.21471C39.0324 5.86344 39.655 6.28654 40.3058 6.20192Z" fill="white"/>
<path d="M73.9512 4.03003H70.5555C70.2159 4.03003 69.8763 4.08644 69.565 4.19927C68.6878 4.48133 68.0087 5.13007 67.6691 5.97625C67.5276 6.34293 67.4427 6.73781 67.4427 7.13269V8.11991H65.8015C65.6034 8.11991 65.4619 8.28914 65.4619 8.45838V9.89689C65.4619 10.0943 65.6317 10.2354 65.8015 10.2354H67.4427V17.9638C67.4427 18.1613 67.6125 18.3023 67.7823 18.3023H69.2255C69.4236 18.3023 69.565 18.1331 69.565 17.9638V10.2354H72.9041C73.1022 10.2354 73.2437 10.0661 73.2437 9.89689V8.45838C73.2437 8.26094 73.0739 8.11991 72.9041 8.11991H69.565V7.04808C69.565 6.45575 70.0461 5.97625 70.6403 5.97625H73.9229C74.1209 5.97625 74.2624 5.80701 74.2624 5.63777V4.39671C74.319 4.17106 74.1492 4.03003 73.9512 4.03003Z" fill="white"/>
<path d="M89.5997 12.774V17.9922C89.5997 18.1896 89.4299 18.3306 89.2601 18.3306H87.8169C87.6188 18.3306 87.4774 18.1614 87.4774 17.9922V12.7458C87.4774 12.633 87.4774 12.5484 87.4491 12.4356C87.3076 11.0817 86.1191 10.038 84.7042 10.0663C83.4025 10.1227 82.3555 11.1099 82.1574 12.3791C82.1291 12.5202 82.1291 12.6612 82.1291 12.8022V17.9922C82.1291 18.1896 81.9594 18.3306 81.7896 18.3306H80.3747C80.1766 18.3306 80.0068 18.1614 80.0068 17.9922V8.45851C80.0068 8.26106 80.1766 8.09183 80.3747 8.09183H81.7896C81.9877 8.09183 82.1291 8.26106 82.1291 8.45851V9.64316C82.6102 8.65595 83.6289 7.979 84.8174 7.979C85.8078 7.979 86.7133 8.26106 87.4491 8.76877C88.7507 9.64316 89.5997 11.1099 89.5997 12.774Z" fill="white"/>
<path d="M52.8697 12.774V17.9922C52.8697 18.1896 52.6999 18.3306 52.5301 18.3306H51.0869C50.8889 18.3306 50.7474 18.1614 50.7474 17.9922V12.7458C50.7474 12.633 50.7474 12.5484 50.7191 12.4356C50.5776 11.0817 49.3891 10.038 47.9742 10.0663C46.6725 10.1227 45.6255 11.1099 45.4275 12.3791C45.3992 12.5202 45.3992 12.6612 45.3992 12.8022V17.9922C45.3992 18.1896 45.2294 18.3306 45.0596 18.3306H43.6447C43.4466 18.3306 43.2769 18.1614 43.2769 17.9922V8.45851C43.2769 8.26106 43.4466 8.09183 43.6447 8.09183H45.0596C45.2577 8.09183 45.3992 8.26106 45.3992 8.45851V9.64316C45.8802 8.65595 46.8989 7.979 48.0874 7.979C49.0778 7.979 49.9834 8.26106 50.7191 8.76877C52.0208 9.64316 52.8697 11.1099 52.8697 12.774Z" fill="white"/>
<path d="M59.2366 8.00708C56.5201 8.00708 54.3129 10.32 54.1997 13.0278C54.0865 16.0176 56.4635 18.4715 59.4347 18.4715C61.076 18.4715 62.0381 17.6535 62.5474 16.751V18.7536C62.5474 20.8126 61.1609 22.0819 59.4347 22.0819C58.3594 22.0819 57.4256 21.4896 56.8596 20.6152C56.8596 20.6152 56.8313 20.5306 56.7465 20.4459C56.6616 20.2767 56.4352 20.2203 56.2654 20.3049L55.0769 21.0101C54.9071 21.0947 54.8505 21.3203 54.9637 21.4896L55.0486 21.6588C55.9824 23.0691 57.5954 23.9999 59.4064 23.9999C60.5666 23.9999 61.6419 23.6332 62.5191 22.9845C63.8208 22.0255 64.6414 20.5024 64.6414 18.7536V13.2252C64.6697 11.279 63.2832 8.00708 59.2366 8.00708ZM59.4347 16.5253C57.7086 16.5253 56.322 15.0304 56.322 13.2252C56.322 11.3918 57.7086 9.92509 59.4347 9.92509C61.1609 9.92509 62.5474 11.3918 62.5474 13.2252C62.5474 15.0586 61.1609 16.5253 59.4347 16.5253Z" fill="white"/>
</svg>
