<?xml version="1.0" encoding="utf-8"?>
<!-- Generator: Adobe Illustrator 26.4.1, SVG Export Plug-In . SVG Version: 6.00 Build 0)  -->
<svg version="1.1" id="Layer_1" xmlns="http://www.w3.org/2000/svg" xmlns:xlink="http://www.w3.org/1999/xlink" x="0px" y="0px"
	 viewBox="0 0 367.6 694.8" style="enable-background:new 0 0 367.6 694.8;" xml:space="preserve">
<style type="text/css">
	.st0{fill:#0000F0;}
	.st1{fill:#0009F1;}
	.st2{fill:#0012F1;}
	.st3{fill:#001AF2;}
	.st4{fill:#0023F2;}
	.st5{fill:#002CF3;}
	.st6{fill:#0035F3;}
	.st7{fill:#003EF4;}
	.st8{fill:#0046F4;}
	.st9{fill:#004FF5;}
	.st10{fill:#0058F5;}
	.st11{fill:#0061F6;}
	.st12{fill:#006AF6;}
	.st13{fill:#0072F7;}
	.st14{fill:#007BF7;}
	.st15{fill:#0084F8;}
	.st16{fill:#008DF8;}
	.st17{fill:#0095F9;}
	.st18{fill:#009EF9;}
	.st19{fill:#00A7FA;}
	.st20{fill:#00B0FA;}
	.st21{fill:#00B9FB;}
	.st22{fill:#00C1FB;}
	.st23{fill:#00CAFC;}
	.st24{fill:#00D3FC;}
	.st25{fill:#00DCFD;}
	.st26{fill:#00E5FD;}
	.st27{fill:#00EDFE;}
	.st28{fill:#00F6FE;}
	.st29{fill:#00FFFF;}
</style>
<path class="st0" d="M363.6,465.2c-10.2-4.1-20.4-7.5-30.3-10.9c-40.6-13.8-79-26.8-102-78.6l0,0c-32.6-73.4-16.5-96.6,7.9-131.7
	c4.3-6.2,8.8-12.7,13.4-19.9c8.3-13.1,12.5-31.8,12.5-55.6c0-1.1,0-2.2,0-3.3c-0.3-21.9-4.2-47.9-11.2-75.4
	c-6.3-24.7-14.5-48.8-24.5-72.1c-2.4-5.6-4.9-10.8-7.3-15.8h-0.9c12.2,24.6,24,56.7,32,88.1c7,27.4,10.8,53.5,11.2,75.2
	c0,1.1,0,2.2,0,3.3c0,23.6-4.1,42.2-12.3,55.2c-4.5,7.2-9,13.6-13.3,19.9c-12,17.3-22.3,32.2-25.4,51.7c-1.6,10.3-1.1,21.4,1.4,33.9
	c2.8,13.6,8,28.9,16,46.9c5,11.7,11.8,22.6,19.9,32.4c7.1,8.3,15.3,15.5,24.4,21.4c17.5,11.5,37.3,18.2,58.1,25.3
	c10,3.4,20.3,6.9,30.6,11V465.2z"/>
<path class="st1" d="M363.6,471.9c-10.2-4.4-20.2-8.1-30.1-11.7c-41.4-15.3-77.2-28.5-98.5-80.1l0,0
	c-29.6-71.9-12.8-97.7,10.4-133.3c4.5-6.9,9.1-14,13.8-21.9c8.6-14.6,12.4-34.5,11.3-59.1c-0.6-11.9-2.1-23.8-4.4-35.5
	c-2.4-12.4-5.5-24.6-9.3-36.6c-7.3-23.5-16.5-46.3-27.6-68.2C224.8,17,220.3,9,215.9,1.8H215c15.3,24.7,30.7,59,41,92.2
	c10.2,33,24,93.8,2.5,130.5c-4.7,7.9-9.3,15-13.7,21.9c-11.7,18-21.8,33.5-25.2,53.5c-1.8,10.5-1.6,21.7,0.5,34.2
	c2.3,13.6,7,28.7,14.2,46.3c4.7,11.6,11,22.5,18.8,32.4c6.7,8.3,14.6,15.7,23.5,21.7c17,11.8,36.3,18.9,56.7,26.4
	c9.9,3.7,20.1,7.4,30.4,11.8V471.9z"/>
<path class="st2" d="M363.6,478.8c-10.1-4.6-20-8.6-29.8-12.5c-40.5-16.2-75.5-30.2-95.1-81.7l0,0C229,358.9,225,339,225,322.2
	c0-29.1,12-48.6,26.6-72.3c4.7-7.6,9.5-15.5,14.3-24.2c8.5-15.6,12-35.5,10.1-59.2c-1.6-20.7-7-43.8-16.2-68.7
	c-8.3-22.3-18.5-43.8-30.6-64.2c-6.4-11-13.5-21.6-21.2-31.7h-1c17.2,22.3,37.6,57,52.1,96.2c19.7,53.3,21.9,98.5,6.1,127.2
	c-4.8,8.8-9.6,16.6-14.3,24.2c-11.5,18.7-21.4,34.8-25.1,55.2c-2,11.4-2.1,23.1-0.3,34.5c1.9,13.6,6,28.5,12.5,45.7
	c4.3,11.6,10.2,22.5,17.6,32.4c6.4,8.4,14,15.8,22.5,22.1c16.4,12,35.3,19.6,55.4,27.6c9.8,3.9,19.9,8,30.1,12.7V478.8z"/>
<path class="st3" d="M363.6,485.7c-9.9-4.9-19.8-9.2-29.3-13.3c-39.6-17.1-73.8-31.9-91.7-83.3l0,0c-23.9-68.6-6.6-98.3,15.2-135.8
	c4.9-8.4,9.9-17,14.9-26.7c7-13.7,9.9-28.9,9.8-44.3c0-28.3-9.5-57.6-19.5-80.5c-9.4-21.1-20.6-41.2-33.6-60.2
	c-9.4-14-20-27.3-31.5-39.7h-1.1c19.3,20.4,46.6,57.3,65.4,100.3c15.4,35.2,29.6,85.3,9.7,124c-5,9.6-10,18.3-14.9,26.7
	c-11.2,19.3-20.9,36-25,56.7c-2.2,11.5-2.5,23.2-1.2,34.8c1.5,13.6,5,28.3,10.8,45c3.9,11.6,9.4,22.5,16.4,32.5
	c6.1,8.5,13.4,16,21.6,22.4c15.9,12.3,34.4,20.4,54.1,28.9c9.7,4.2,19.7,8.5,29.7,13.5V485.7z"/>
<path class="st4" d="M363.6,492.7c-9.8-5.2-19.4-9.7-28.9-14.1c-38.8-18.1-72.3-33.8-88.4-85.1l0,0c-21-66.9-4-97.7,17.5-136.7
	c5.1-9.2,10.4-18.8,15.5-29.5c8.4-17.4,11-37.5,7.8-59.6c-2.8-19.2-9.9-40-21.2-61.9c-10.4-19.9-22.7-38.7-36.6-56.3
	C217.5,34.3,204.6,20,190.7,6.7c-1.7-1.7-3.5-3.3-5.4-4.9h-1.2c2.1,1.8,4.1,3.7,6,5.5c11.1,10.5,49.3,48.8,75.1,98.8
	c24.5,47.6,29,88.2,13.3,120.8c-5.1,10.6-10.4,20.2-15.5,29.4c-21.6,39.2-38.7,70.1-17.6,137.3c3.5,11.6,8.6,22.5,15.3,32.6
	c5.8,8.6,12.7,16.2,20.7,22.8c15.3,12.7,33.6,21.2,52.9,30.2c9.6,4.5,19.3,9,29.2,14.3V492.7z"/>
<path class="st5" d="M363.6,499.8c-9.6-5.4-19-10.2-28.3-14.8c-38-19.1-70.9-35.7-85.2-87l0,0c-5.5-19.5-7.8-36.1-7.8-50.7
	c0-34.3,12.7-58.3,27.5-86.6c5.4-10.2,10.9-20.8,16.2-32.5c5.7-12.5,8.6-26.1,8.5-39.9c0-24.2-8.5-50.5-25.4-78.5
	c-17.9-29.5-45.1-61-81.1-93.5c-5.4-4.9-11.2-9.7-17.2-14.5h-1.3c6.3,4.9,12.3,10,18,15.1c35.9,32.4,63.1,63.8,80.9,93.3
	c26.6,44,32.3,83.6,16.9,117.6c-5.3,11.7-10.8,22.3-16.2,32.5c-10.3,19.6-20,38-24.6,59.3c-5.1,23.6-3.6,48.5,4.8,78.5
	c14.4,51.7,47.4,68.3,85.6,87.5c9.4,4.7,19,9.5,28.6,15V499.8z"/>
<path class="st6" d="M363.6,507c-9.4-5.7-18.6-10.7-27.6-15.6c-37.3-20.2-69.6-37.7-82.1-89.1l0,0c-15.5-63.3,1.8-97.7,21.9-137.6
	c5.7-11.3,11.5-22.9,17-35.9c8-18.6,10.1-39.2,5.8-59c-2.1-9.6-5.3-18.9-9.5-27.8c-4.4-9.2-9.5-18-15.4-26.4
	c-10.5-15.2-24-30.8-41.3-47.7c-15-14.6-30.3-27.8-43.7-39.5c-1.1-0.9-2.1-1.8-3.2-2.8c-9.4-8.1-19.6-16.1-30.4-24h-1.4
	c11,8.1,21.6,16.3,31.2,24.6l3.2,2.8c27.3,23.6,61.4,53,84.9,87c27.8,40.3,34.1,77,19,112.4c-5.5,12.9-11.3,24.6-17,35.8
	c-10,20-19.5,38.9-24.4,60.4c-5.4,23.9-4.6,48.6,2.5,77.7c5.8,23.7,15.9,41.7,31.9,56.5c14.3,13.4,32,22.9,50.6,33
	c9.2,5,18.5,10,28,15.8V507z"/>
<path class="st7" d="M363.6,514.3c-9.1-5.9-18.1-11.1-26.8-16.2c-36.7-21.4-68.4-39.8-79.1-91.3l0,0c-2.9-13.2-4.3-26.7-4.4-40.3
	c0-38.4,13.4-66.2,28.3-97.2c6-12.4,12.2-25.3,17.9-39.6c3.6-8.9,6-18.3,7-27.9c0.9-8.7,0.4-17.5-1.2-26.1c-1.7-8.4-4.4-16.6-8-24.4
	c-3.8-8-8.3-15.6-13.5-22.8c-21-29.3-52.8-54.6-80.8-76.9c-7.1-5.7-13.8-11-20.2-16.2C169.2,24.2,154,12.9,138.5,1.8h-1.4
	c15.8,11.3,31.3,22.8,45,34.1c6.3,5.2,13.1,10.6,20.2,16.3c28,22.3,59.8,47.5,80.7,76.7c24.1,33.7,29.2,66.6,15.7,100.5
	c-5.7,14.3-11.9,27.1-17.9,39.5c-19.8,41-36.8,76.4-24,138c5,23.8,14.4,41.9,29.9,57.3c13.9,13.8,31.2,23.9,49.6,34.6
	c8.7,5.1,17.9,10.4,27.2,16.5V514.3z"/>
<path class="st8" d="M363.6,521.8c-8.9-6.1-17.7-11.6-26-16.8c-36.1-22.6-67.4-42.1-76.2-93.8l0,0c-10.2-59.4,6.5-95.4,25.8-137
	c6.4-13.7,12.9-27.9,18.9-43.7c3.3-8.6,5.5-17.6,6.5-26.8c0.8-8.1,0.5-16.3-1-24.3c-2.7-14.5-9.2-28.4-19.8-42.3
	c-19.5-25.8-49.3-46.9-78.2-67.4c-12-8.5-23.3-16.6-33.7-24.8c-16.1-12.8-33.7-25.6-52.3-39.1c-1.8-1.3-3.6-2.6-5.4-3.9h-1.4
	c2.1,1.5,4.2,3.1,6.3,4.6c18.6,13.5,36.2,26.3,52.3,39.1c10.4,8.2,21.7,16.3,33.7,24.8c28.8,20.4,58.5,41.6,78,67.2
	c22.1,29.1,26.7,59.5,14.2,92.7c-6,15.8-12.5,29.9-18.9,43.6c-9.6,20.6-18.6,40.2-24,61.9c-2.8,11.4-4.5,23-4.9,34.8
	c-0.4,13.7,0.6,27.4,3,40.8c4.1,23.9,12.9,42.3,27.8,58.1c13.4,14.2,30.6,24.9,48.8,36.3c8.5,5.3,17.3,10.8,26.4,17.1V521.8z"/>
<path class="st9" d="M363.6,529.4c-8.6-6.3-17-11.9-25-17.2c-37.2-24.9-66.5-44.5-73.4-96.5l0,0c-7.7-57.3,8.7-93.8,27.7-136.1
	c6.8-15.1,13.8-30.8,20-48.2c4.5-12.5,6.5-24,6.5-34.6c0-52.1-49-82.6-96.6-112.2c-15.6-9.7-31.6-19.7-45.4-30.2
	c-10.9-8.3-22.3-16.7-34.4-25.7c-12-8.9-24.2-17.9-36.1-26.9h-1.4c12.2,9.3,24.7,18.5,37,27.6c12.1,8.9,23.5,17.3,34.4,25.7
	c13.8,10.5,29.9,20.5,45.5,30.2c28.4,17.7,57.7,35.9,76.3,58.7c20.9,25.6,25.3,54.1,13.5,87.1c-6.2,17.4-13.2,33-20,48.2
	c-9.3,20.9-18.2,40.6-23.7,62.3c-2.9,11.3-4.8,22.9-5.5,34.5c-0.8,13.3-0.3,26.6,1.5,39.8c3.2,24,11.4,42.7,25.8,59
	c13,14.7,30,26,48,38c8.2,5.5,16.7,11.2,25.4,17.6V529.4z"/>
<path class="st10" d="M363.6,537.2c-8.2-6.4-16.2-12.1-23.9-17.6c-36.8-26.3-65.8-47.1-70.8-99.4l0,0c-0.7-7-1-13.6-1-20.1
	c0-44.8,14.8-78.8,30.3-114.6c7.3-16.7,14.8-34,21.3-53.3c2.9-8.3,4.8-17,5.7-25.8c0.7-7.4,0.4-14.9-1-22.2
	c-2.5-12.9-8.5-24.6-18.2-35.7c-8.1-9.2-19.2-18.3-33.7-27.6c-13-8.3-27.6-16.1-41.8-23.7c-19.2-10.3-39.1-21-56-33.3
	c-2.7-2-5.4-3.9-8.1-5.9c-24-17.5-49.9-36.5-74.3-56.2h-1.3c24.6,19.9,50.8,39.1,75.1,56.8c2.7,2,5.4,4,8.1,5.9
	C191,77,211,87.6,230.2,98c29.4,15.7,57.2,30.6,75.2,51.1c20.3,23.1,24.6,49.4,13.3,82.9c-6.5,19.2-14,36.5-21.2,53.2
	c-9.1,21-17.7,40.8-23.5,62.4c-3,11.2-5,22.6-6.1,34.1c-1.2,12.8-1.1,25.8,0.2,38.6c2.3,24.2,9.9,43.2,23.8,60
	c12.6,15.2,29.5,27.2,47.3,40c7.8,5.6,16,11.5,24.4,18V537.2z"/>
<path class="st11" d="M363.6,545.1c-7.8-6.4-15.4-12.2-22.7-17.8c-36.5-27.9-65.3-49.9-68.2-102.7l0,0
	c-2.9-52.9,13.5-91.7,30.9-132.7c7.8-18.5,15.9-37.6,22.7-58.9c2.7-8.3,4.5-16.9,5.4-25.5c0.7-7.2,0.3-14.4-1-21.5
	c-2.5-12.4-8.4-23.3-17.9-33.3c-17.8-18.6-45.5-31.1-74.9-44.4c-22.7-10.2-46.1-20.8-65.9-34.8C145.8,55.1,111,29.7,79,1.8h-1.2
	C110,30,145.1,55.6,171.4,74.1c19.9,14,43.3,24.6,66,34.9c29.3,13.2,57,25.7,74.6,44.2c19.8,20.7,24.1,46,13.4,79.5
	c-6.8,21.2-14.8,40.3-22.6,58.8c-8.9,21-17.2,40.8-23.2,62.2c-3.1,11-5.3,22.2-6.7,33.5c-1.5,12.4-1.9,24.9-1.1,37.3
	c1.3,24.4,8.3,43.8,21.8,61.2c12.2,15.7,29,28.5,46.7,42.1c7.4,5.7,15.2,11.6,23.2,18.2V545.1z"/>
<path class="st12" d="M363.6,553.1c-7.3-6.4-14.5-12.2-21.4-17.8c-36.3-29.6-65-53-65.7-106.3l0,0c-0.7-50.5,15.3-89.2,32.2-130.1
	c8.4-20.4,17.2-41.6,24.3-65.1c2.6-8.3,4.3-16.8,5-25.5c0.6-7,0.2-14.1-1.2-21c-2.5-12-8.3-22.2-17.8-31.3
	c-17.6-16.9-45.3-27.2-74.7-38.1c-25.9-9.6-52.7-19.6-75.2-34.9c-38.5-26.2-73.8-54.3-102-81.2h-1.2c11.5,11,24.2,22.2,37.9,33.5
	c20.1,16.5,41.9,32.8,64.9,48.4c22.6,15.4,49.4,25.4,75.4,35c29.3,10.9,56.9,21.2,74.4,38c19.5,18.7,23.8,43.2,13.7,76.9
	c-7.1,23.5-15.8,44.6-24.2,65c-16.6,40.2-32.3,78.2-32.3,127.3c0,1.1,0,2.1,0,3.2c0.3,24.6,6.6,44.5,19.8,62.5
	c11.9,16.3,27.8,29.3,46.3,44.4c7,5.7,14.4,11.7,21.9,18.3V553.1z"/>
<path class="st13" d="M363.6,561.4c-6.8-6.3-13.5-12.1-19.9-17.6c-35.4-30.7-63.5-55.1-63.5-106.2l0,0c0-1.3,0-2.7,0.1-4.1
	c1.4-47.9,16.9-86.2,33.4-126.8c9.2-22.6,18.7-46,26.1-72.1c2.5-8.3,4-16.8,4.7-25.5c0.6-6.9,0.1-13.9-1.3-20.6
	c-2.6-11.6-8.4-21.3-17.8-29.6c-17.5-15.4-45.3-23.7-74.8-32.4c-28.9-8.6-58.9-17.5-84.1-34C126.1,66,86.9,33.7,56.5,1.8h-1.1
	C69.8,16.9,85,31.2,101,44.6c20.7,17.5,42.4,33.7,65.1,48.6c11.3,7.4,24.7,14,40.9,20.1c14.3,5.4,29.1,9.8,43.3,14
	c29.3,8.7,57.1,17,74.4,32.2c19.3,17,23.8,40.7,14.1,74.8c-7.4,26-16.9,49.4-26,72c-16.5,40.7-32.1,79.1-33.4,127.1
	c-0.7,24.9,4.9,45.3,17.7,64c11.6,17,27.5,30.8,46,46.9c6.6,5.7,13.4,11.7,20.5,18.1V561.4z"/>
<path class="st14" d="M363.6,569.8c-6.3-6.1-12.5-11.8-18.3-17.2c-36.4-33.5-65.1-60-61.2-114.6l0,0c3.2-45.2,18.3-82.8,34.2-122.6
	c10-25.1,20.4-51,28.2-79.9c3.1-11.4,4.6-21.7,4.6-30.8c0-11.6-2.5-21.3-7.4-29.5c-3.7-6.1-8.6-11.3-14.4-15.4
	c-6.3-4.4-13.1-8.1-20.3-10.8c-15.2-6-33.2-10.1-52.4-14.5c-30.4-6.9-64.8-14.7-92.6-32.3C121.2,75,79.1,38.8,47,1.8h-1.1
	c16.1,18.6,33.5,36,52.1,52c20.5,17.9,42.3,34.2,65.3,48.9c12.5,7.9,27.3,14.5,45.2,20.2c15.8,5,32,8.7,47.6,12.2
	c19.1,4.3,37.1,8.4,52.3,14.5c16.9,6.7,27.8,14.9,34.4,25.9c8.7,14.5,9.6,34.1,2.7,59.7c-7.8,28.9-18.1,54.8-28.1,79.8
	c-16,39.9-31,77.6-34.3,122.9c-1.8,25.3,3.2,46.1,15.7,65.7c11.3,17.8,27.3,32.5,45.8,49.6c6.2,5.7,12.5,11.6,18.9,17.7V569.8z"/>
<path class="st15" d="M363.6,578.4c-5.7-5.8-11.3-11.3-16.7-16.5l0,0c-36.6-35.8-65.6-64.1-59.1-119.5
	c4.9-42.3,19.4-78.8,34.7-117.5c11-27.8,22.4-56.5,30.6-88.7c2.9-11.3,4.3-21.3,4.3-30.2c0-12.1-2.6-22-8-30.1
	c-3.8-5.7-8.8-10.5-14.6-14.1c-6.4-4-13.2-7.1-20.4-9.3c-15.2-5-33.3-7.9-52.5-11c-33.1-5.3-70.6-11.4-100.8-29.9
	C116.5,84.3,72,44.4,38.9,2.2c-0.1-0.1-0.2-0.2-0.3-0.3h-1c0.2,0.3,0.4,0.6,0.7,0.9c17.2,21.8,36.3,42,57,60.4
	c20.3,18.3,42.2,34.7,65.5,49.2c13.6,8.3,29.7,14.8,49.4,19.9c17.3,4.5,34.8,7.3,51.8,10c19.1,3.1,37.2,6,52.3,10.9
	c16.8,5.5,27.8,12.9,34.6,23.1c9.1,13.9,10.2,33.4,3.5,59.7c-8.2,32.1-19.6,60.8-30.6,88.6c-15.3,38.7-29.8,75.3-34.8,117.7
	c-3,25.6,1.3,47.1,13.6,67.6c11.1,18.6,27.2,34.3,45.8,52.5c5.6,5.5,11.4,11.2,17.2,17.1V578.4z"/>
<path class="st16" d="M363.6,587.2c-5-5.3-10-10.4-14.9-15.5c-32.4-33.5-58.8-60.8-58.8-104.9l0,0c0-6.7,0.6-13.4,1.7-20
	c6.3-39.1,20.1-74.1,34.8-111.1c12.2-30.9,24.8-62.9,33.5-98.7c2-8.4,3.3-16.1,3.8-23.1v-12.5c-0.8-9.9-3.5-18-8.2-24.7
	c-3.9-5.4-9-9.8-14.8-13c-6.5-3.5-13.3-6.2-20.5-7.9c-15.2-4-33.5-5.8-52.7-7.7c-35.7-3.5-76.2-7.5-108.9-26.9
	C114.4,95,70.1,54.5,36.9,9.8c-2-2.7-3.9-5.4-5.8-8h-1c2,2.8,4,5.7,6.1,8.5c16.7,22.4,35.5,43.1,56.1,62
	c10.5,9.6,21.3,18.7,32.2,26.9c10.7,8.1,21.9,15.7,33.5,22.6c14.7,8.7,32.1,15.1,53.4,19.5c18.7,3.9,37.5,5.7,55.8,7.5
	c19.2,1.9,37.4,3.7,52.6,7.7c16.9,4.4,28,11,34.8,20.7c9.4,13.3,10.8,32.8,4.3,59.7c-8.6,35.8-21.3,67.7-33.5,98.6
	c-14.6,37.1-28.5,72.1-34.8,111.3c-4.2,26.1-0.6,48.2,11.4,69.8c10.9,19.5,27.1,36.3,46,55.8c5.1,5.2,10.2,10.6,15.5,16.1V587.2z"/>
<path class="st17" d="M363.6,180.9c-0.7-1.2-1.5-2.3-2.3-3.4c-15.6-20.4-49.6-21.8-88.9-23.4c-38.2-1.6-81.6-3.3-116.7-23.5
	C112.1,105.6,68.1,64.4,35,17.5C31.3,12.3,27.8,7,24.5,1.8h-1c3.4,5.4,7,10.8,10.8,16.2c16.3,23,34.7,44.3,55.2,63.6
	c21.4,20.3,43.6,37,65.8,49.8c35.3,20.2,78.7,22,117,23.6c39.1,1.6,72.9,3,88.2,23.1c1.1,1.5,2.1,3,2.9,4.6V180.9z"/>
<path class="st17" d="M363.6,596.3c-4.4-4.9-8.7-9.6-13-14.2c-37.6-41-67.3-73.3-55.3-130.7c7.4-35.6,20.5-68.5,34.3-103.3
	c12.3-31,24.9-62.9,34-98.2v-3.3c-9.1,36.5-22.2,69.4-34.8,101.3l0,0c-13.8,34.9-26.9,67.8-34.3,103.5c-5.5,26.5-2.6,49.5,9.3,72.2
	c4.9,9.4,11.3,18.8,20.2,29.7c7.9,9.7,16.7,19.3,26.1,29.5c4.4,4.8,9,9.8,13.6,14.9V596.3z"/>
<path class="st18" d="M363.6,174.4c-17.2-15.6-49.4-15.2-86.2-14.7l0,0c-40.7,0.6-86.9,1.2-124.3-19.6
	C109.6,116,65.9,74.1,33.1,25.1c-5.2-7.8-10-15.6-14.4-23.3h-0.9c4.5,8,9.4,15.9,14.7,23.8c15.8,23.5,34,45.4,54.2,65.2
	c21.4,20.8,43.6,37.6,66,50.1c37.6,20.9,83.9,20.3,124.7,19.7c37.1-0.5,69.4-0.9,86.2,14.9V174.4z"/>
<path class="st18" d="M363.6,605.5c-3.7-4.3-7.3-8.5-10.9-12.6C314.3,549,284,514.4,299,455.8c8.1-31.7,20.2-61.8,33-93.7
	c11.1-27.6,22.4-55.9,31.5-86.3v-2.9c-9.2,31.4-20.9,60.5-32.3,88.9c-12.8,31.9-24.9,62.1-33,93.8h0c-6.9,27.1-4.7,50.9,7,74.9
	c10.6,21.7,28.2,41.8,46.7,63.1c3.8,4.3,7.6,8.7,11.5,13.3V605.5z"/>
<path class="st19" d="M363.6,171.3c-18.4-10.2-48-8.3-81.4-6.2l0,0c-43.1,2.8-92,5.9-131.8-15.4C107,126.4,63.6,83.8,31.2,32.8
	c-6.4-10-12.3-20.4-17.7-31h-0.9C18.1,12.6,24,23,30.5,33.2c7.6,12,15.9,23.5,24.7,34.7c8.9,11.2,18.5,22,28.6,32.1
	c21.3,21.3,43.5,38.2,66.2,50.4c17.8,9.6,39.1,15.1,65,16.9c22.7,1.5,45.3,0.1,67.2-1.3c33.5-2.2,63.2-4.1,81.4,6.3V171.3z"/>
<path class="st19" d="M363.6,615c-2.9-3.5-5.9-7.1-8.7-10.5c-37.8-45.3-70.4-84.4-52-144.3c8.4-27.3,19.2-53.8,30.7-81.9
	c10.4-25.4,21-51.3,30-78.7V297c-9.3,28.2-20.1,54.9-30.8,81c-11.5,28.1-22.4,54.7-30.7,82l0,0c-4.5,14.6-6.1,28.2-5,41.6
	c1.1,12.6,4.4,24.9,9.8,36.3c10.6,22.9,28.4,44.4,47.4,67.1c3.1,3.7,6.2,7.5,9.4,11.3V615z"/>
<path class="st20" d="M363.6,624.7c-2.2-2.7-4.3-5.4-6.4-8.1c-38.9-48.6-72.5-90.6-50.5-152c7.9-22.1,17.2-44,26.9-67.2
	c10.3-24.4,20.7-49.2,30-75.2v-2.4c-9.5,26.8-20.2,52.3-30.8,77.3c-9.8,23.2-19,45.2-27,67.3h0c-22.1,61.8,11.6,103.9,50.7,152.7
	c2.4,2.9,4.7,5.9,7.1,8.9V624.7z"/>
<path class="st20" d="M363.6,170c-18.8-6.3-46.2-3.2-76.8,0.2l0,0c-45.5,5.1-97,10.9-139.1-11c-44-22.9-86-65.2-118.4-118.8
	C21.7,27.9,14.9,15.1,8.9,1.8H8c6.1,13.4,13,26.4,20.6,39C36,53.1,44,65,52.7,76.4c8.7,11.5,18.2,22.5,28.2,32.8
	c21.2,21.8,43.5,38.8,66.3,50.8c18.9,9.8,41.3,15,68.8,15.7c24,0.6,47.8-2,70.8-4.6c30.6-3.4,58.1-6.5,76.7-0.2V170z"/>
<path class="st21" d="M363.6,170c-5.3-0.9-10.7-1.4-16.1-1.3c-16.2,0-35.6,3.1-56.1,6.3l0,0c-47.8,7.5-102,16.1-146.3-6.3
	c-44-22.3-85.8-65.2-117.6-120.8c-8.5-14.9-16-30.3-22.5-46.2H4c12,29.5,27.5,57.3,46.3,83c8.6,11.8,17.9,23,27.8,33.5
	c21.1,22.2,43.4,39.4,66.5,51.1c19.9,10,43.5,14.8,72.4,14.4c25.2-0.3,51.3-4.4,74.4-8c28.1-4.4,53.5-8.4,72.2-5.1V170z"/>
<path class="st21" d="M363.6,634.6c-1.3-1.7-2.7-3.5-4-5.2c-30.7-39.8-58.1-75.4-58.1-117.9c0-13.3,2.7-27.4,8.9-42.4
	c6.5-15.9,13.5-31.8,21-48.6c10.9-24.6,22.1-50,32.2-76.7v-2.2c-10.3,27.1-21.7,53-33,78.6c-7.4,16.8-14.5,32.8-21,48.7v0
	c-6.3,15.3-9.2,29.9-8.8,44.7c0.3,13.3,3.2,26.5,8.9,40.4c10.6,25.9,29.4,50.3,49.3,76c1.5,2,3.1,4,4.6,6V634.6z"/>
<path class="st22" d="M363.6,170.9c-3.6-0.2-7.2-0.2-10.8,0l0,0c-16.5,0.7-36.2,4.7-57.1,8.9c-50.1,10-106.9,21.4-153.4-1.5
	C98.1,156.6,56.6,113.1,25.4,55.6C16.4,38.9,8.5,21.6,1.9,3.8v2.3C8.4,23.2,16,39.9,24.7,56c7,12.9,14.7,25.3,23.1,37.3
	c8.4,12,17.6,23.4,27.5,34.2c20.9,22.7,43.4,40,66.7,51.5c20.9,10.2,45.7,14.5,76.1,13.1c26.5-1.3,53.8-6.7,77.9-11.5
	c20.9-4.2,40.6-8.1,57-8.9c3.6-0.2,7.2-0.2,10.7,0V170.9z"/>
<path class="st22" d="M363.6,644.8c-0.5-0.6-0.9-1.2-1.4-1.8C322,589.1,284,538.3,314.1,473.6c3.7-8,7.5-16.1,11.5-24.5
	c12.6-26.6,25.8-54.8,37.9-84.7v-2.2c-12.3,30.6-25.9,59.4-38.7,86.5c-4,8.5-7.8,16.5-11.5,24.5l0,0c-3.6,7.6-6.4,15.6-8.3,23.8
	c-1.7,7.5-2.6,15.1-2.6,22.7v0.3c0,13.9,2.8,27.8,8.6,42.6c10.8,27.7,30.1,53.5,50.5,80.8c0.7,0.9,1.3,1.8,2,2.7V644.8z"/>
<path class="st23" d="M363.6,655.1c-39.8-54.6-80-111.2-45.7-177.1c15.3-29.4,31.3-60.7,45.7-94v-2.1c-14,32.6-30,64.1-46.4,95.8
	c-4.1,7.9-7.4,16.2-9.7,24.7l0,0c-2.1,7.8-3.2,15.8-3.4,23.9c-0.4,14.8,2.4,29.7,8.4,45.7c10.9,29.2,31.3,57.3,51.2,84.6V655.1z"/>
<path class="st23" d="M363.6,172.6c-1.7,0.1-3.5,0.2-5.4,0.3c-16.7,1.4-36.9,6.3-58.2,11.4l0,0c-52.3,12.6-111.7,26.8-160.4,3.6
	C95.3,166.7,54.1,122.5,23.5,63.2C15.2,47.1,8,30.4,1.9,13.2v2.6c5.9,16.4,12.9,32.3,20.9,47.8c6.8,13.2,14.3,25.9,22.5,38.2
	c8.2,12.3,17.3,23.9,27.1,34.9c20.8,23.2,43.3,40.6,66.9,51.9c21.8,10.4,47.9,14.2,79.6,11.6c27.7-2.3,56.2-9.1,81.3-15.1
	c21.3-5.1,41.4-9.9,58.1-11.4c1.8-0.2,3.6-0.3,5.3-0.3V172.6z"/>
<path class="st24" d="M363.6,665.7c-28.2-39.4-57.3-82.4-57.3-128c0-18,4.5-36.4,15.4-55.2c16.6-28.8,30.3-54.8,42-80.1v-2.1
	c-14.4,31.4-29.6,59.1-42.7,81.7c-4.8,8.1-8.5,16.8-11.2,25.8c-2.4,8.2-3.9,16.7-4.2,25.3c-0.7,15.7,2.1,31.7,8.3,48.9
	c10.8,29.7,30.3,57.8,49.8,85V665.7z"/>
<path class="st24" d="M363.6,174.8C363.5,174.8,363.5,174.8,363.6,174.8c-17.1,2.1-37.6,7.8-59.4,13.8l0,0
	c-54.5,15.2-116.4,32.3-167.3,8.8C92.4,176.8,51.5,131.9,21.6,70.8C14.1,55.4,7.5,39.5,1.9,23.3v2.6c5.4,15.5,11.8,30.6,19,45.4
	c14,28.6,30.4,53.8,48.7,74.7c20.6,23.6,43.2,41.2,67,52.2c22.8,10.6,50,13.8,83.2,10.1c28.9-3.3,58.5-11.5,84.7-18.8
	c21.7-6,42.1-11.7,59.1-13.8V174.8z"/>
<path class="st25" d="M363.6,677.7v-1.4c-27.6-38.8-56.3-83.3-56.3-129.5c0-19.7,5.2-39.8,18.1-59.9c13.9-21.8,26.7-44.3,38.2-67.4
	v-1.7c-11.7,23.6-24.7,46.5-38.9,68.7c-20.6,32.3-23.7,67.2-9.4,106.9l0,0C326.1,623.3,345.2,651.9,363.6,677.7z"/>
<path class="st25" d="M363.6,177.5c-16.3,3.1-35.3,9.1-55.2,15.3c-53.9,16.9-121,37.9-174.1,14.1l0,0
	C76.9,181.2,40.3,122.8,19.7,78.4C13,63.8,7,48.8,1.9,33.6v2.6c4.9,14.5,10.6,28.7,17,42.6c13.7,29.4,29.7,55.1,47.7,76.3
	c20.5,24.1,43.1,41.8,67.2,52.6c23.8,10.7,52.1,13.5,86.7,8.5c30.1-4.3,60.9-14,88-22.5c19.9-6.2,38.8-12.1,55-15.3V177.5z"/>
<path class="st26" d="M363.6,180.7c-15.4,3.9-32.9,9.9-51.2,16.3c-56,19.4-125.6,43.6-180.9,19.5l0,0C73.9,191.3,37.8,131.6,17.8,86
	c-6-13.6-11.3-27.5-15.9-41.6v2.5C6.3,60.3,11.4,73.4,17,86.3c13.3,30.2,29,56.4,46.8,77.9c20.3,24.5,43,42.4,67.4,53
	c24.7,10.8,54.2,13,90.1,6.8c31.2-5.4,63.2-16.5,91.3-26.3c18.2-6.3,35.6-12.3,50.9-16.2V180.7z"/>
<path class="st26" d="M363.6,687.1c-17-24-34.9-51.6-45.6-80.8c-16-43.8-12.3-81.4,11.1-114.9c11.6-16.6,22.3-33.8,32-51.5
	c0.8-1.5,1.6-3,2.4-4.5v-1.8c-10.6,19.8-22.3,38.9-35.1,57.3c-6.3,8.9-11.3,18.7-15,28.9l0,0c-3.3,9.4-5.2,19.3-5.8,29.2
	c-0.5,9.7,0.1,19.5,1.8,29c1.7,9.7,4.3,19.2,7.8,28.5c10.8,29.7,29.1,57.7,46.3,81.9V687.1z"/>
<path class="st27" d="M363.6,184.2c-14.5,4.4-30.5,10.5-47.2,16.8c-58,22-130.2,49.3-187.5,25l0,0c-58-24.6-93.5-85.6-113-132.4
	C10.7,81.1,6,68.3,1.9,55.4V58c4,12.4,8.4,24.4,13.2,35.9c19.6,47,55.1,108.1,113.4,132.9c25.7,10.9,56.3,12.6,93.5,5.1
	c32.4-6.5,65.5-19,94.6-30.1c16.6-6.3,32.5-12.3,46.9-16.7V184.2z"/>
<path class="st27" d="M359.1,691.5c-24.4-34.8-50-80.3-50-126.2c0-23.5,6.7-47.1,23.8-69.5c11.1-14.6,21.4-29.9,30.7-45.8v-1.6
	c-9.5,16.2-19.9,31.9-31.3,46.9c-50.5,66.2-11,143.4,25.9,196.2H359.1z"/>
<path class="st28" d="M363.6,188c-13.5,4.7-28.1,10.7-43.3,16.9c-60,24.5-134.6,55.1-194.1,30.6l0,0
	c-58.4-24.1-93.3-86.4-112.2-134.4c-4.5-11.5-8.5-23-12-34.4v2.7c3.4,11,7.2,21.8,11.2,32c12.6,31.8,27.7,59.1,44.9,81
	c20,25.4,42.8,43.5,67.7,53.8c26.6,11,58.3,12.1,96.9,3.3c33.5-7.6,67.7-21.6,97.8-33.9c15.1-6.2,29.7-12.1,43-16.8V188z"/>
<path class="st28" d="M349.8,690.2c0.3,0.5,0.6,0.9,0.9,1.3h1c-11.3-17-23-37.7-31.1-60c-18.7-51.6-13.4-95.7,16-131.2
	c9.7-11.7,18.7-24,26.9-36.8v-1.4c-8.4,13.1-17.6,25.7-27.5,37.7c-8,9.6-14.5,20.4-19.1,32.1l0,0c-4.2,10.7-6.7,22-7.6,33.5
	c-1.5,20.6,2,42.9,10.6,66.5C326.7,650.7,336.8,670.4,349.8,690.2z"/>
<path class="st29" d="M343.6,691.5h1c-9.9-16.3-19.1-34.9-25.4-54c-11.9-36.5-17.9-89.2,21.2-132.8c8.3-9.3,16-19,23.2-29.1v-1.4
	c-7.3,10.4-15.3,20.4-23.8,30c-16.6,18.2-27,41.2-29.6,65.7c-2.3,21,0.5,43.8,8.3,67.8C324.8,656.6,333.2,674.6,343.6,691.5z"/>
<path class="st29" d="M363.6,192.2c-12.4,4.9-25.7,10.7-39.4,16.7c-62,27.1-139.1,60.9-200.7,36.2C64.7,221.5,30.4,157.9,12,108.7
	c-3.7-10-7.1-20.1-10.1-30.2v2.8c2.9,9.5,6,18.8,9.3,27.7c12.2,32.6,27,60.4,44,82.6c19.8,25.9,42.7,44.1,67.9,54.2
	c27.6,11,60.4,11.5,100.3,1.5c34.7-8.7,70-24.1,101.1-37.8c13.6-6,26.8-11.7,39.1-16.5V192.2z"/>
</svg>
